v -0.59578198 -0.01237842 -0.34700501
v -0.588250930137696 0.0135606216298754 -0.37216650661669
v -0.592156932377873 0.0191447875793656 -0.329583372224726
v -0.585042126890993 -0.0161297539027841 -0.309380855554214
v -0.58403633792922 -0.0168066630304734 -0.382763814847947
v -0.579564322045596 -0.0412399543289629 -0.344088336086851
v -0.573063474236137 0.0440265765844951 -0.367586686729444
v -0.573151781869667 0.0152490553069353 -0.290963423503134
v -0.576301910965395 0.0432423106728039 -0.329300299964179
v -0.561047230576073 -0.0460547512323186 -0.300855311214214
v -0.252061646647081 -0.151098160645505 -0.338668358411599
v -0.561626699125617 -0.0489393830755223 -0.397606712396664
v -0.568962954756118 0.0252423565354778 -0.409946004463373
v -0.549541818072993 0.0583130478654206 -0.403803393855128
v -0.555461551911139 0.045143602858213 -0.293665435652424
v -0.544215608625482 -0.0714704970336524 -0.327357775035489
v -0.543864828621958 0.0698011533747903 -0.325358100133906
v -0.554155388069362 -0.026341814538229 -0.273540963468157
v -0.545057047005472 0.0337956886415497 -0.269525208956508
v -0.539615320938521 0.00227322342989724 -0.257119099097715
v -0.532939604174351 0.0779769645460317 -0.367329678907228
v -0.531861389627765 -0.0441762827543314 -0.462400460910194
v -0.535175534484534 -0.00811340474705244 -0.477990451546572
v -0.529308793343037 -0.0817069960265816 -0.376546789046595
v -0.526486956819142 -0.0729542747286289 -0.427596944637849
v -0.528821720790218 0.053532853468732 -0.454399836433161
v -0.513265150915639 -0.0377439918944839 -0.245525748124075
v -0.517836282347526 0.0164039731957455 -0.498945373775741
v -0.507444248938186 -0.0923789888165516 -0.330359215502075
v -0.50426613702371 0.086211702986334 -0.428654319375826
v -0.501741836483494 0.0905538317671239 -0.320906282914843
v -0.500036877011154 -0.0168843384512499 -0.518623805272453
v -0.486322034464698 0.101206525515828 -0.382998840344634
v -0.493295261825982 0.0606488531309139 -0.247024956805794
v -0.492491456769699 -0.0978388001026292 -0.412311200454779
v -0.464902385423919 -0.0307064800897578 -0.543926764581579
v -0.48375243344929 -0.0616782612357752 -0.50323691796119
v -0.494354338117177 -0.0820463331688566 -0.458870763111546
v -0.473775441555293 -0.0967889442848136 -0.285408879059501
v -0.49941465705599 0.0788426120269944 -0.279118887416437
v -0.479162748134824 0.0546825013580076 -0.512675534181
v -0.470855162849376 0.0923668799099941 -0.459202969853181
v -0.470033659256447 -0.0726203643634885 -0.239289691691044
v -0.453683959049649 0.0194641294844532 -0.55464058779476
v -0.476851056842838 -0.106638676079534 -0.363901967502734
v -0.456836254814328 0.0135146399444047 -0.207393997256167
v -0.4561789803647 0.0482292197390797 -0.215520015966521
v -0.450550906838854 -0.03124953147232 -0.206259133759862
v -0.427631534923193 -0.0654500575266407 -0.546022436554555
v -0.446966131511596 0.114531855046106 -0.363294419070052
v -0.44710001 -0.113342399202763 -0.407063805611553
v -0.452358135863209 0.109409280077657 -0.413865377696779
v -0.446821968537434 0.106123170096958 -0.442375695479265
v -0.439997467417055 -0.128746526322485 -0.427462973693734
v -0.442478739095418 0.114166470348462 -0.396634629917113
v -0.434466341475857 0.135314235475817 -0.409968716360929
v -0.445877111824606 0.0958384020612485 -0.257575872843162
v -0.43741399 -0.11095127 -0.44824699
v 0.258456464769317 0.0646637169069579 -0.281455390739976
v -0.433456855512189 -0.138633105336718 -0.408848797646304
v -0.436017913535963 -0.118414356266597 -0.376643548293295
v -0.42992355080948 -0.099721936862631 -0.247227132569415
v -0.427310213142568 0.106971514881383 -0.462494142294701
v -0.427359779658983 -0.0943666806894993 -0.502097378765643
v -0.428808117345058 0.125983295230693 -0.380464871690329
v -0.42750001 0.12821247 -0.45104799
v -0.393758826293223 -0.122252874044793 -0.279698873897287
v -0.416204167490373 0.14666190342155 -0.393637065550177
v -0.420009401224457 0.0975669994630639 -0.496293152080613
v -0.419339892290429 -0.130031787072191 -0.459253736080307
v -0.418971816286022 -0.144764091507823 -0.443194646031085
v -0.412450095831754 -0.113660844243957 -0.466297796954501
v -0.420043876521406 0.148187498887756 -0.427413375015504
v -0.411317443030272 -0.0323563202908312 -0.578496962590242
v -0.413690847764632 0.123316466956488 -0.370870674255923
v -0.406334555259275 0.1305802493347 -0.465344574654035
v -0.419838514336737 0.0653051023247086 -0.548599142526758
v -0.395316547210894 0.0432812117979351 -0.580703077929856
v -0.405977431517052 -0.157748772223037 -0.423365558523506
v -0.411072645477159 -0.1301745307478 -0.370947935040465
v -0.414989073794037 -0.151015936091422 -0.398012898229386
v -0.403837182562546 -0.0767213731661689 -0.204507963489268
v -0.39458607369187 -0.154851133582407 -0.443528508388753
v -0.394700296508116 0.157582628155815 -0.401081142172979
v -0.393809515834037 0.0952802705830063 -0.222891642216209
v -0.399312189695702 -0.13854017792116 -0.461656052717574
v -0.396164849276816 -0.153902618231641 -0.388525254490124
v -0.392651323770348 0.157317563393957 -0.43406647379988
v -0.39468845996363 0.142993066838556 -0.377026047674441
v -0.378880236168759 0.0632430915017471 -0.186178148057911
v -0.39142099 -0.1175039 -0.46947199
v -0.386814496394508 0.115827156298139 -0.473460153677631
v -0.38143 0.13049747 -0.37294701
v -0.380287378484229 -0.161473012486744 -0.419595626854471
v -0.386615155870846 -0.131461297507581 -0.367447920339361
v -0.37865001 -0.14380825 -0.45824799
v -0.36891201 -0.11000395 -0.23035902
v -0.363335212898017 0.0139240936190828 -0.606181039059421
v -0.38118432327244 0.143492397889449 -0.456399293640531
v -0.377004439272853 0.159388496706581 -0.416396659546861
v -0.375424197293274 -0.153628433251684 -0.391616846614903
v -0.36583815722495 -0.0803304466373932 -0.568365685727443
v -0.36465439978462 0.0158259370206659 -0.163917353746586
v -0.350483961457563 -0.124028904896446 -0.485381576943712
v -0.371196940798085 -0.126283681642822 -0.45880128137188
v -0.370166896808339 0.147134020975736 -0.385758901988064
v -0.358099036226034 -0.150871082970126 -0.408438732465583
v -0.390907206649239 0.116272158407563 -0.263385067327279
v -0.356803948030929 0.113047069305327 -0.505069950285564
v -0.365801680928481 0.0825726103665518 -0.560870120212509
v -0.365908797824534 0.151613031936231 -0.435275386413444
v -0.360178465655788 -0.151307077832445 -0.433140286216721
v -0.362803547857996 -0.136859733944611 -0.343618345612259
v -0.357884832900803 0.15076794560724 -0.413202267969183
v -0.35588101 0.13450484 -0.39720801
v -0.354326912061859 -0.134488578607295 -0.432233421020699
v -0.350768936187914 0.130932781463673 -0.441771348338837
v -0.349037497096225 0.13726495503165 -0.352532803742287
v -0.35168358188456 -0.0806585576094866 -0.187185656908816
v -0.347583170089441 0.13237328382924 -0.293397610912542
v -0.323005163690684 -0.14286694211661 -0.407839758697667
v -0.325938302756377 -0.136859353296581 -0.285702630169385
v -0.304561444836871 0.0119254518493415 -0.145980674749227
v -0.301220473894626 -0.0440142977504462 -0.151484989674364
v -0.315984912685172 -0.11000173480522 -0.5429795243558
v -0.321965795590485 0.115924227048938 -0.230142004254222
v -0.332293457698129 0.0573677298297634 -0.60410164570701
v -0.302840043706172 0.0896210509447699 -0.581188327699957
v -0.281948741711164 -0.0571347886574353 -0.624354470662076
v -0.299978984482616 0.114594807768509 -0.531320646509632
v -0.289158868200304 0.0235765336857572 -0.632540771671286
v -0.274863550371286 -0.135721085846875 -0.482929052342601
v -0.258215568596276 0.0639061190630253 -0.624004405013459
v -0.243491429721558 -0.0633894290603007 -0.147419197257741
v -0.253254622066605 0.135442170251193 -0.47974153592147
v -0.240246285158023 0.0992883197872987 -0.583613077960755
v -0.249937626103675 -0.105440857455525 -0.574909820767572
v -0.2143069497387 -0.0328901449999102 -0.132267053473173
v -0.228180815455443 0.0239700567584666 -0.133452138916631
v -0.24057346999266 0.0545466521386987 -0.143611903875117
v -0.240638374740738 0.129811833091018 -0.241065175532528
v -0.227925692057996 -0.0715575210798585 -0.123037188048019
v -0.228804016011188 0.0744186308521269 -0.107928017618292
v -0.228635297594486 -0.0940064958992931 -0.0898471993799903
v -0.011441010458107 -0.196146416423375 -0.309791838457405
v -0.227723586517517 -0.0830132998292007 -0.129647044078247
v -0.227055161525685 -0.0810922845988313 -0.0900875836226876
v -0.227624075113307 -0.0683445777757509 -0.146342059551093
v -0.225248170750412 0.0825283250550175 -0.128941666657057
v -0.221429913676045 0.0778081956533509 -0.152737085259727
v -0.225593121662905 0.0652194883449216 -0.140121018850433
v -0.226752 0.0952747328955045 -0.0819491040780195
v -0.22468120355293 -0.0787353515431611 -0.146739778136082
v -0.249401116307774 -0.11358821150634 -0.204574242086255
v -0.220423502696683 -0.090613203400831 -0.0607261682069658
v -0.218538736317905 0.0572900549930414 -0.139299927928567
v -0.226849100479039 -0.000250542724679434 -0.64844614132897
v -0.221350486329979 0.102642121834605 -0.0612156492149486
v 0.49384256313458 0.027269014971493 -0.400433681836458
v -0.220829 -0.10406752 -0.06313202
v -0.216784539031231 0.0658497362469348 -0.128792156648338
v -0.201759552790315 -0.0503882838183662 -0.642450367504975
v -0.216181412695154 0.103199761273192 -0.182715358126868
v -0.215823390270539 0.099048382606131 -0.0388691423146311
v -0.222390153823079 -0.0897553638950094 -0.163094640204584
v -0.210989587532282 -0.103218094538486 -0.0297081893950882
v -0.214746012219865 -0.0838483148979814 -0.615276054942051
v -0.192889510423467 -0.0754501313230696 -0.105908694968552
v -0.195393908765411 -0.116832641662573 -0.556249253531494
v 0.0849682251571711 -0.120620682320089 -0.404633706637801
v -0.191510738686456 0.149551873094517 -0.29920653354983
v -0.204587124692222 -0.117939556060882 -0.0283313756515679
v -0.210184501695766 -0.0809106982960272 -0.143673247993726
v -0.20486601 0.11694821 -0.022205
v 0.0610184857644531 0.123449336795499 -0.319090914930999
v -0.203976154635756 -0.152752960487499 -0.39418229179412
v -0.224318617557094 0.0387860745610741 -0.642822815787947
v -0.197694423792569 0.107461878944873 -0.0184708438511943
v -0.197349231896205 -0.00840004218093629 -0.656038610149929
v -0.196855419230704 0.0732116205255205 -0.625143448556041
v -0.195428798389971 0.0160208426814846 -0.651416046039752
v -0.19337850484647 0.081302353597804 -0.135338632103906
v -0.19374201 0.06038385 -0.134774
v -0.197669 -0.11879564 -0.01754099
v -0.189446695606784 -0.110789482246161 -0.0169116384898834
v -0.184037715833877 0.00216237525282057 -0.691639768500093
v -0.173348749779847 -0.122788437922627 -0.203783976979168
v -0.17329456143688 0.140118660986944 -0.466580030091982
v -0.179907185122913 -0.123988339069637 -0.02285299
v -0.17812988972357 0.0771827825819062 -0.102274756963664
v -0.176667328920931 0.1013932771354 -0.122393073547654
v -0.184453349419344 -0.0128673429775659 -0.681142995742101
v -0.184431438899291 0.121692205142343 -0.0240197979189301
v -0.309738241502358 0.132633480380651 -0.467471897268937
v -0.176304084061254 -0.101920705431805 -0.126688398369456
v -0.182460571043913 0.0949734604034771 -0.0961690136167088
v -0.18108401 -0.09158229 -0.113161
v -0.18173499 -0.09318027 -0.14961199
v -0.186723093781516 -0.06557076 -0.13404801991411
v 0.492561305131723 0.0276432317793512 -0.337381378231504
v -0.155764260534342 0.0193709068372351 -0.697599571087443
v -0.408998476173141 0.00761868384556951 -0.583101902700717
v -0.184574454296208 -0.140288453068137 -0.479008015122782
v -0.181428598572319 0.0961513234609029 -0.0470008091236432
v -0.0852043484036849 -0.185200531450157 -0.341104258194275
v -0.176385521754264 -0.0209169050569355 -0.653455035835091
v -0.169045021555595 -0.161834111323793 -0.332106522100709
v -0.167087895674382 0.0993378070386887 -0.590241299254992
v -0.172753206149319 0.0968447801655315 -0.158817897893961
v -0.170384430405633 0.120191590221881 -0.0766773315477417
v -0.171016065457311 0.121063920885761 -0.204969509815699
v -0.170697176365193 -0.0731772650549751 -0.127812025343205
v -0.170493182256053 0.123006055640348 -0.0263715046212848
v -0.154079266279273 0.124357253280096 -0.527040400170768
v -0.167829575502069 -0.12426266020116 -0.0773377731634111
v -0.159276687588036 0.0212006796944816 -0.655523104225555
v -0.165127284369622 -0.151143978851149 -0.26318486817078
v -0.165138233520906 0.139942994941724 -0.250567125995525
v -0.146691087191025 0.134384219191625 -0.0665750177091274
v -0.156981419426557 0.0735039957968036 -0.130116396216363
v -0.158804278756791 -0.0406864875235389 -0.127624679731964
v -0.162023805871102 0.12930188761325 -0.055216765760669
v -0.158639355229747 -0.014652250142159 -0.726806175591122
v -0.162636198607328 -0.113931026416733 -0.0612613102857315
v -0.15979967919586 0.112360331128655 -0.0635931407566621
v -0.15473062097703 -0.0234148485940408 -0.68964512822716
v -0.151509239527521 0.135457955865795 -0.0395841389411744
v -0.155276714653285 0.114617033749334 -0.0283681317734565
v -0.157031607535524 -0.123964940739814 -0.0397756824433347
v -0.152813361646421 0.126791043900924 -0.0436252401603105
v -0.148174772117797 -0.0990988439163871 -0.154606524431665
v -0.232235265273002 0.145116901070085 -0.429078892812216
v -0.151536518804966 -0.155558333206389 -0.36390199268136
v -0.14222526746935 0.119953520576113 -0.105977433074942
v -0.157334997545128 -0.11440153138858 -0.11275875336763
v -0.15127525024301 -0.142315368913957 -0.04180801
v -0.239927771695473 -0.124000309117927 -0.530663451365804
v -0.141237383562158 0.154971640493511 -0.241562524283415
v -0.142797271359569 0.0151625852897264 -0.740343248515624
v -0.139178850528981 -0.172542754574607 -0.363890391503531
v -0.145468277368104 -0.109811661680107 -0.0424058589781237
v -0.154043499303431 0.0284002753651872 -0.126503881281618
v -0.142224517055313 0.14522864438001 -0.0401703470430027
v -0.142200454894373 -0.138338517766042 -0.241729223212455
v -0.137691731236398 0.137588701781485 -0.0258333582493203
v -0.123302716472459 0.0247623905920218 -0.699130743429522
v -0.140206438008767 0.115847542591935 -0.0414498047770424
v -0.134992 -0.12338862 -0.05070299
v -0.129321951672411 0.149987332852949 -0.37584958343402
v 0.0603390019703469 -0.124726755175761 -0.309793114381407
v -0.135533 0.0916084 -0.155921
v -0.135818748987238 -0.13807919951919 -0.0266240661536208
v -0.169178017741023 0.159848368423944 -0.341404522794627
v -0.128594890421197 0.0913882590694571 -0.112654461502398
v -0.109222546586027 0.0521234588702895 -0.643845556035621
v -0.145215951253428 0.103784460888796 -0.051164797080939
v -0.126339827286575 -0.100157684427097 -0.0964954188728309
v -0.126549107122822 -0.135953627262836 -0.0780731476550758
v 0.448205424713652 0.0231900271783139 -0.444327356455737
v -0.130091698207649 0.171403575700858 -0.377787772536708
v -0.104365910451318 0.0266591137813846 -0.656024158811119
v -0.12724 0.11845624 -0.057208
v -0.13076422265656 -0.107685280197922 -0.0611508292985984
v -0.121114762972699 -0.165924649343364 -0.385969400900982
v -0.12531212238167 0.106055808269315 -0.0697127480735103
v -0.136842455621136 -0.149261295610279 -0.418948457279525
v -0.12449950979664 0.00125213396115795 -0.775583792276636
v -0.124719016896951 -0.0862123566874836 -0.127512775252136
v -0.122247913699713 0.155211589408287 -0.0178912176124422
v -0.125924410398682 -0.0991276658192319 -0.593942380022045
v -0.128973193291882 -0.0127877959722525 -0.766646977686124
v -0.119713255262957 -0.120450887379165 -0.0574293736314972
v -0.119656668943745 0.147139377248274 -0.220044325020034
v -0.110624281379738 0.165860996901541 -0.392715254880311
v -0.105609911495884 0.148828633689726 -0.0483776755841577
v -0.108400134901916 -0.0596355141164243 -0.640758639123765
v -0.10791099 -0.16204803 -0.007954
v -0.115591268266567 -0.0243680314722156 -0.741958341985711
v -0.0925948059148331 0.144228303521768 -0.404484146230337
v -0.101144371606173 -0.133671329593835 -0.0338411736282851
v -0.109066613973944 -0.162132696363877 -0.21313503990938
v -0.100283870119174 -0.149092628420512 -0.213438149709512
v -0.0842122814641053 -0.126194290264758 -0.227318193995814
v -0.11378671520204 -0.14479682373376 -0.264515499877066
v -0.0981148806708291 -0.149465649459072 -0.348987038743611
v -0.109262559702936 0.015850073497794 -0.76864677225225
v -0.102518781581541 -0.0839290594257599 -0.155374844586036
v -0.0989355986359481 -0.0178847602366592 -0.773095975747567
v -0.0810429383825969 -0.106264707830543 -0.0913725141793969
v -0.10230440604996 0.0814829295742395 -0.14625265786604
v -0.11134599 0.14184593 -0.271139
v -0.10156199 -0.18225907 -0.39393699
v -0.0870342078009544 -0.153363794995921 -0.308406532329744
v -0.0863937951755682 -0.171020045179838 -0.405015750170759
v -0.093495 -0.00095726 -0.78992897
v -0.0804561081924567 -0.17683070807265 -0.240922026337987
v -0.094594 0.18038097 -0.40007901
v -0.09407 0.15077931 -0.00318399
v -0.0872684847533835 -0.151160575064337 -0.00562017399350307
v -0.092885 -0.10090028 -0.14449701
v -0.0991286259072326 0.0848098440748712 -0.609951867973536
v -0.0869170948313394 0.0933309221606859 -0.174049363954358
v 0.109437784042914 0.115517718887841 -0.329422310700972
v -0.0821506490868843 0.02416303797482 -0.750143179158872
v -0.0803609105180222 -0.157479089927845 -0.0383876684969238
v -0.0769778888908542 -0.118546000921095 -0.537540631828549
v -0.0653201596717965 -0.141672907256789 -0.295676622476566
v -0.0832602050700962 0.146975348580023 -0.239067224451162
v -0.0689376537257829 -0.163459067526029 -0.382477742330421
v -0.0818022015385573 0.164929661967507 -0.199383489336971
v -0.0669721555691682 -0.095304435709903 -0.590058439501393
v -0.074354930633247 0.0895230797346092 -0.139233127932557
v -0.078818613592356 0.166433305853418 -0.00319771312832275
v -0.0737223038157438 0.0622490134388873 -0.146409850206986
v -0.0907547794521514 0.123589644826641 -0.22391196603715
v -0.087545547954298 -0.0517907244751775 -0.13539434832138
v -0.0785672264663768 -0.167390279383277 -0.00161264963245009
v -0.075115 0.00964294 -0.78961402
v -0.069192 0.15263943 -0.19463
v -0.0574767655409975 0.0988942663317838 -0.575139476270965
v -0.0700882799473896 0.0989366564547322 -0.105590375704088
v -0.0655209811224206 -0.107783163312453 -0.133545988005024
v -0.067034 -0.01210861 -0.79102498
v -0.0602936706758686 -0.0864880102840183 -0.170321019574663
v -0.067443 0.18496628 -0.413212
v -0.0654892249482013 0.124043841594424 -0.505206384940365
v -0.0723391273073621 0.0278762345238271 -0.692586458243732
v -0.0633174615677252 -0.17209021522543 -0.196117651725079
v -0.0502641240481507 -0.000304484065838368 -0.798524583445839
v -0.0599224912583461 -0.0941783184644563 -0.129221445222869
v -0.05853 -0.18740319 -0.41693199
v -0.0579023772358009 0.135371406047236 -0.275588361761066
v -0.0620625102254459 0.165851594206155 -0.00264393386053308
v -0.0587042544058092 0.0287334989913002 -0.65270935440905
v -0.0600240499607811 0.171466570507972 -0.415349536794994
v -0.0617290371121252 -0.130001851112986 -0.0473455799804468
v -0.053791 0.10810291 -0.12911899
v -0.0188389340068482 -0.127358937499813 -0.257481003700185
v -0.0509984786950033 0.152439954681778 -0.00799552677452321
v -0.0472384136825465 -0.168318759432505 -0.0105188514520171
v -0.0394767715442647 -0.195490635412347 -0.357063121086068
v -0.046769462723525 -0.158554453505096 -0.00776445711733051
v -0.0448887277154141 0.0570272164641339 -0.628239832941394
v -0.0468558082468488 0.192099963859682 -0.37256090846789
v -0.0464862449783505 0.119211751248201 -0.0705708862640404
v -0.0424324953803619 0.165107303383726 -0.016323562516954
v -0.0504286108042106 0.140520590513612 -0.384076745901424
v -0.227201994793823 0.12128446017697 -0.534170659172008
v -0.0506760207953754 -0.0316822236645982 -0.649236664325115
v -0.0470885217003448 -0.0615818133477179 -0.628088160469823
v -0.258807691217972 0.14716136035849 -0.344229802895525
v -0.0401009564555036 -0.107654094397593 -0.121718201444921
v -0.282925291182753 0.143470441699095 -0.412850078268359
v -0.0451032747148707 0.152684422506661 -0.0521441530109056
v -0.0465150803439399 0.0977796145999303 -0.12338208034394
v -0.0414635108053987 -0.0284163302968266 -0.744990850858072
v -0.036021 -0.16139929 -0.188967
v -0.208709706391106 -0.150915561943806 -0.30439027561118
v -0.031282 0.16567582 -0.187372
v -0.0508816156147696 -0.16073388209483 -0.328649013952572
v -0.0301121519057537 -0.17928841546502 -0.197695894698864
v -0.0313872118405728 0.191418467860243 -0.423294442193473
v -0.026544 0.17596023 -0.424849
v -0.027159 0.12370754 -0.102798
v -0.02622 0.14694415 -0.02962101
v -0.024931 -0.12752229 -0.09787199
v -0.0314384924841074 -0.112565416354616 -0.094656782283508
v -0.024844 0.11472827 -0.09474102
v -0.0284971842042587 -0.00931436475264399 -0.795481290634645
v -0.0338770391886467 -0.130528154237021 -0.468310545740299
v -0.0231932682539803 -0.15803096730666 -0.03943801
v -0.0210516454989926 -0.141458706744918 -0.0437903490873539
v -0.0201733778795639 0.158987609955735 -0.196527204570195
v -0.02244 0.15544306 -0.03825399
v -0.0269268008457337 0.125863760060659 -0.0649228331322476
v -0.00277848721979575 0.167345965296685 -0.328259394039402
v -0.0197599783454672 0.129893796791357 -0.0813600695020448
v -0.0182151161850822 0.176083653301405 -0.19440858304854
v -0.264482748410301 0.103526895711972 -0.196073629446563
v -0.017519468803192 0.14016023554299 -0.063099773056002
v -0.0172096754005838 -0.14150077412613 -0.0618889726153872
v -0.018387581733535 -0.179697146828438 -0.427709696940456
v -0.016858 0.01025151 -0.793423
v -0.00302368146865387 0.180928501031684 -0.429558051611736
v 0.00140372943038327 -0.00560328104449218 -0.133343169240289
v -0.00557925992174186 -0.196776160564773 -0.426801132954082
v -0.00747928641683415 -0.110382918011556 -0.53281683023476
v -0.00684535590852315 -0.173535782672653 -0.192715572534036
v 0.00276675414420012 0.128352569784189 -0.285104180360288
v -0.0153250571477626 -0.0825231556042151 -0.595564973494833
v 0.003343 0.1679436 -0.200223
v 0.00385118482109747 0.0780905881521043 -0.589956755972392
v 0.012109 0.19631475 -0.426258
v 0.00708571758443147 -0.167838915032906 -0.212687137732954
v 0.00197548886915209 -0.133129566033456 -0.406602572283021
v 0.0120342383162548 -0.174382725714551 -0.372652051138962
v 0.01319 -0.00092855 -0.79230601
v 0.013992665161668 -0.185741684350597 -0.426631179498375
v 0.015223 -0.18346277 -0.212092
v -0.00607152817753128 0.189039148822148 -0.258546545576776
v 0.0267462513191166 0.185375415317931 -0.419519646360549
v 0.0123224212927089 -0.0160066657792926 -0.78128510920427
v 0.023307096889631 -0.0316054674261968 -0.625655121482281
v 0.02384 0.18498352 -0.223607
v 0.0279690889967263 0.0268199806260482 -0.727568435475661
v 0.031505 -0.2010577 -0.412608
v 0.0300163041059876 0.0175739099832203 -0.767670017921954
v 0.033874 0.174584963406615 -0.241268856545781
v 0.0354769723045992 -0.186284337953292 -0.410823889366906
v 0.0299440822403782 -0.0274551382353582 -0.74147009436839
v 0.03923 0.19859019 -0.40730399
v 0.024950362532267 -0.0304118423267182 -0.690703074367005
v 0.0746691380222936 0.0559274303566187 -0.584848495628114
v 0.0398707816769044 -0.0654575436888031 -0.594524426071468
v 0.0426436650308146 0.191244805569302 -0.258575544049933
v 0.0439636249562626 -0.194144214733366 -0.261376681426698
v 0.0421580239896651 -0.203189688384309 -0.328530036829944
v 0.046818 0.18519785 -0.39595601
v 0.057021 0.20086372 -0.38132301
v 0.0557491891710385 0.0283322285954127 -0.652177910130814
v 0.059426 -0.19834976 -0.298053
v 0.051303328516427 -0.0178018447801257 -0.761723275887601
v 0.058478 -0.18442732 -0.29888001
v 0.0526997844549349 0.0893698487291775 -0.547305028610687
v 0.0425294932427158 -0.117167171823234 -0.256111755878994
v 0.0581226116150334 -0.202600323171047 -0.379162600526324
v 0.0482841030595259 0.0546350693963497 -0.169018816580077
v 0.0647802477206643 0.0172183982748677 -0.749103784658598
v 0.0328619999425562 0.200569164821748 -0.324475704761364
v 0.064676 -0.1881993 -0.36048299
v 0.067045 -0.187767529571367 -0.331222563263584
v 0.06642 0.18723598 -0.35738501
v 0.0627224687864667 -0.000516359674397098 -0.770004692881285
v 0.0607032145141479 0.196636074133549 -0.302194625874941
v 0.067545 0.18750773 -0.32612801
v 0.0677806225387328 0.200953234307475 -0.34456566678542
v 0.101635099418962 -0.119989836287627 -0.350976025921038
v 0.0986672481790618 -0.105819913544193 -0.476020944459996
v 0.067045 -0.202436252688933 -0.337311567629335
v 0.056975015387658 -0.0905562693096782 -0.548704912032336
v 0.0703815796556509 -0.0101276472295904 -0.138477965134728
v 0.0887384948114243 0.119644663367281 -0.377577245847205
v 0.0704664662366992 0.00269500878522224 -0.134341330709436
v 0.0629664635714459 0.0239537285784697 -0.607446523800079
v 0.0649197639808593 -0.0277910984663166 -0.713209051924359
v 0.0846682375960998 0.0994450898544111 -0.500110550314769
v 0.079457 -0.00092085 -0.121746
v 0.0825174145155941 0.00917738928091801 -0.128179165212007
v 0.087019 -0.01085511 -0.74122798
v 0.09391801 -0.00055919 -0.73930699
v 0.0907077634959781 -0.0268234382148209 -0.639008627471048
v 0.080047101035106 0.0192826267829939 -0.726847511316974
v 0.0930408178720622 0.0222546039885749 -0.687663953350785
v 0.0976339481951369 -0.0260270421491642 -0.594593098194576
v 0.105922519005814 0.00934259571056359 -0.112601061641478
v 0.0956538549434976 0.0166060705108489 -0.152436818245578
v 0.0839095458486625 0.0771283395218202 -0.202077261697262
v 0.113876 0.02404384 -0.58263803
v 0.1110767996911 -0.0593947758181496 -0.564125812135093
v 0.099554 -0.00104141 -0.10394999
v 0.104171014161867 0.00542159473202257 -0.715654114373934
v 0.103740304041111 -0.0121084571773868 -0.118386326617821
v 0.111392808412578 0.0125898595049686 -0.689970316925439
v 0.116260853395481 0.0201809385852737 -0.616397725567786
v 0.129409265180821 0.0871163009932734 -0.233904467875425
v -0.060545569674776 -0.185656850776838 -0.293021292508226
v 0.11760038479965 -0.115436324018588 -0.307151495587172
v 0.10414758948997 0.0203925071772455 -0.650278858776669
v 0.119102325493467 -0.0164928467684637 -0.644079955360525
v 0.111714867585109 -0.0166848929958543 -0.674972138628395
v 0.119882833775788 0.0601622965229026 -0.555002674395006
v 0.111580615145645 -0.0189596322746663 -0.158263729335693
v 0.1166972294323 0.109006170859783 -0.431620688614954
v 0.125646214840898 0.0124832453417783 -0.639442916153321
v 0.135968201177216 -0.0106799782037257 -0.633441077668461
v 0.130347 -0.00104141 -0.08382699
v 0.109471771101871 -0.0892416846675938 -0.223570173436185
v 0.529668694631311 -0.0267294558594638 -0.269113599318415
v 0.141109800960362 -0.022786790890368 -0.606101127514678
v 0.166554135008077 -0.0158622349188396 -0.133778196479031
v 0.153754378143799 -0.0966978286233054 -0.457749269265134
v 0.153369139355678 0.00390815987240725 -0.626982295514127
v 0.00876786790102494 0.111726072843914 -0.510511333773164
v 0.165957241575476 -0.0109609561523048 -0.622825867139337
v 0.174597691909535 -0.00146971305731054 -0.0685740635021708
v 0.161715737352012 0.0159710731794839 -0.171962291982973
v 0.165702458702443 0.0179921262124922 -0.607844690792836
v 0.150868570326194 0.0249257315717928 -0.567423127177537
v 0.151486895822124 0.102562825675266 -0.286395343405908
v 0.152264184442285 -0.0283538517408486 -0.567203051626785
v 0.159404610398082 -0.0527398524782654 -0.540357429366263
v 0.165855585530645 0.00958774152795297 -0.0869478828508835
v 0.170231242333065 -0.105291925062564 -0.397854584085578
v 0.475689147057566 -0.0300968052999565 -0.327798881904972
v -0.00385394315092143 -0.10260333822366 -0.207237152446954
v -0.0221051259448519 0.192835173939969 -0.316137755285219
v 0.190170036176806 -0.028087455904346 -0.593775701666733
v 0.167219763884543 -0.0940676068663449 -0.262562605289717
v 0.20035002455657 0.00891450808480956 -0.0777236587260517
v 0.1598114157719 0.0570565818961593 -0.208075303564858
v 0.168420833475197 0.0558841650512276 -0.528009717767363
v 0.188744291057811 -0.0125106619239732 -0.0882934645677584
v 0.192797486281566 -0.030355304226435 -0.533839500974808
v 0.196643908391744 0.0279589986869114 -0.582261843766122
v -0.0121628885535256 0.128189869754723 -0.450255634551053
v 0.210755000384327 -0.0602953324694276 -0.234706819049174
v 0.188220572159074 -0.0217415306233198 -0.193037551161733
v 0.217332161869037 0.0165096776616878 -0.20245271523989
v 0.206170520551581 0.0643284001650994 -0.484576998260776
v 0.194758373527073 -0.0667658884359661 -0.495698175992032
v 0.210892291370038 -0.0965385678269707 -0.321350711012343
v -0.379792933011484 -0.0994080353796741 -0.527626081367801
v 0.203630326890775 0.0762956218363018 -0.257356375097917
v 0.195402692522117 0.0891453055443661 -0.431401077949689
v 0.240720927980602 -0.05557081736765 -0.469372451626224
v 0.207140019540375 -0.0171473554743107 -0.632221860188351
v 0.20974299 -0.00098404 -0.64540797
v 0.211849531571561 0.0275412390099426 -0.523295437801543
v 0.212450216650306 0.0181742026304288 -0.628918204982645
v 0.218425017038654 -0.00345385237198641 -0.0659201440811668
v 0.228491421500182 -0.0817777484154346 -0.426620116788102
v 0.233272184054388 0.00719029026779005 -0.07260901
v -0.243255982751904 -0.139747504373779 -0.263942092850164
v -0.0105479462113483 -0.165718083204148 -0.283848331268431
v 0.24211823395667 -0.0174080323185488 -0.629273322101739
v 0.241191 -0.00998048 -0.07581699
v 0.236523146354135 0.0159607453854379 -0.630384864511422
v 0.24667901 -0.00107012 -0.07078502
v 0.234015093907887 -0.0132849175724177 -0.0995252961403709
v 0.233386997195529 -0.0304980282260441 -0.510509347149382
v 0.254854161588931 -0.0300202439835205 -0.579063328483909
v 0.277978626087255 0.0683833473627445 -0.390150042919867
v 0.254879 -0.00100126 -0.638309
v 0.25215399 0.02592505 -0.488776
v 0.256127353622569 0.00885032576013732 -0.0830390819984738
v 0.268916818277843 -0.0187609153817917 -0.161855970376926
v 0.276057 -0.02361781 -0.47121301
v 0.271992 -0.01175644 -0.239647
v 0.26952649712332 0.0168870673415211 -0.20056850746319
v -0.0838487995914422 0.17454207885161 -0.25030504558237
v 0.146731656000044 -0.112453603794704 -0.354870317496054
v 0.275822681487802 0.0088247834415214 -0.243164623448656
v 0.273017833616834 0.018444425016009 -0.611115785501564
v 0.283277584112353 0.00969947344802849 -0.0984977884190064
v 0.286280100775285 0.0319065135640553 -0.262379814480127
v 0.274564782826176 -0.0315305511957321 -0.518633644228621
v 0.288101326387722 0.000453992646363059 -0.249191674642435
v 0.2687945306455 -0.00494395495192281 -0.0828805946913472
v 0.279024512591586 0.0287922189178756 -0.517722444823196
v 0.265651942325872 0.0139333355469034 -0.120449905039917
v 0.290768866296321 -0.0701977140267972 -0.365533418450906
v 0.290760374906384 0.019056821820866 -0.456930853626056
v 0.285337484996669 -0.027501714248471 -0.256205032358795
v 0.293480510322067 -0.0509623878116255 -0.419433066611118
v 0.287740229041624 0.0696961155575828 -0.337184445347049
v -0.273648784631686 -0.148523905149827 -0.404866458879829
v 0.293498080630364 -0.00061442893006447 -0.619507937219531
v 0.303849146752709 -0.0235342480388458 -0.443054813152276
v 0.295541285674928 -0.0120477424952197 -0.110974687492202
v 0.298096205552712 -0.0212108866877544 -0.593185586493184
v 0.303351786076549 -0.00807963525787355 -0.457380479714879
v 0.303599508677235 -0.00123479286806231 -0.238081101310753
v 0.307550030525004 -0.0266990627951373 -0.482129763314392
v 0.30634701 0.00943056 -0.10933399
v 0.28572364222295 -0.0557030663491807 -0.28489349992371
v 0.310524224133862 -0.0164475870355432 -0.19020652366771
v 0.311609726247956 0.00832299365444644 -0.460094621242731
v 0.29773399 -0.0011792 -0.09557101
v 0.313381405597949 0.0126494607870028 -0.253266379667104
v 0.320993935351877 -0.00861388365814768 -0.249443604816609
v 0.314220661169987 -0.00294371607232776 -0.443037339721205
v 0.312685119086297 -0.0100909243099009 -0.225018143242352
v 0.305009538878066 0.039841181507407 -0.421387751901729
v 0.319698130224728 0.0505142273018411 -0.307219680705883
v 0.330333400374839 -0.0163035047883175 -0.433026003700413
v 0.304337627598662 0.027293317618375 -0.550364814687664
v 0.311442585197801 0.0222250908107644 -0.477217468885513
v 0.32270601 -0.00143376 -0.59715098
v 0.3225340750734 0.012054706823186 -0.140653794904594
v 0.323104276116466 0.0146895411588225 -0.583152452833155
v 0.319960774289371 0.0161479709120105 -0.434994092764772
v 0.319210261143829 0.00931210350188472 -0.217306748856171
v 0.328108059936681 -0.00250412736897506 -0.117749875067926
v 0.317341669071126 -0.0310237205845237 -0.269098866608467
v 0.31170695774934 -0.0295140602955658 -0.540123451860051
v 0.329675284450108 0.00917350026633512 -0.130292294450108
v 0.330699940410596 0.0103933649929261 -0.181084014803343
v 0.118726593808158 0.0794741126805182 -0.52539662509508
v 0.203248910884444 -0.0172164423838447 -0.14770183275934
v 0.334957354753126 -0.00181493467498157 -0.199651283805311
v 0.332371484926214 0.00145223635004343 -0.467253338241818
v 0.0287200389934939 -0.123396289365951 -0.454496799347912
v 0.316930706355954 0.0270194847503284 -0.511418129282182
v 0.326724646487594 -0.0163150749352683 -0.472128183400577
v 0.3476713940301 0.0153787189266186 -0.248385177111429
v 0.340036722821404 -0.0147919304396392 -0.24659718853959
v 0.341358559910799 -0.00107652094625714 -0.153456005362864
v 0.331097826307281 -0.0183333567689934 -0.570387631138648
v 0.341799349150362 -0.0199533100925601 -0.262183597157533
v 0.345164127556174 0.0010911169697633 -0.438902666486088
v 0.142104636742063 0.0911172766007904 -0.480142395186749
v 0.345528722548221 -0.0469083898948349 -0.372521223871134
v 0.33975801 -0.00045199 -0.237515
v 0.344204627057068 -0.0195435438056808 -0.504119898191852
v 0.347847789820794 0.046064241053457 -0.340445381397043
v 0.345655083208823 0.0226117840941512 -0.277317379173925
v 0.361826032885747 -0.0268180227462938 -0.289546426437656
v 0.0709898004514734 -0.116897818445335 -0.448471744876253
v 0.351365 -0.01985539 -0.422086
v 0.351365 0.01732854 -0.423159
v 0.342774077129034 0.0427683212357097 -0.383126254327307
v 0.347543406470458 0.0174424000646041 -0.518370283366607
v 0.344361140796431 -0.0203633539300801 -0.537345548030653
v 0.341270024930397 0.0172550208003926 -0.552414932339142
v 0.353530154243523 -0.00222565317685781 -0.491904392447785
v 0.330567844392567 -0.0508838575601362 -0.313200987390247
v 0.35324299 -0.000918384796161288 -0.56030703
v 0.454744851701622 0.027482180404763 -0.360302750149994
v 0.346721254535802 0.0415895327607409 -0.310858279142952
v 0.0238298600676385 -0.198658577598494 -0.290579037505595
v 0.360255 -0.00096872 -0.53999603
v 0.368446851223259 -0.021869355794398 -0.245836669778714
v 0.35617303108472 -0.0123846536333548 -0.228291205016983
v 0.112660655469202 -0.105336788065041 -0.258497597025837
v 0.364739210639112 0.0276506835155749 -0.32149514338196
v -0.0402566710355833 0.156190509188578 -0.265422864944464
v 0.168326651379911 0.013016151198721 -0.116119099004462
v -0.23832286144357 -0.147224970732254 -0.434540725617338
v 0.23183692323441 -0.0923389971098826 -0.366305344878574
v -0.307687318323776 -0.113169642310989 -0.216046645741957
v 0.37493719941176 -0.0296530258411525 -0.339389269668539
v -0.140418102237633 -0.123627276854392 -0.536545208511044
v 0.371861240359945 -0.0280248765657413 -0.385389251052039
v 0.222341712577508 0.0163733894051266 -0.156054187347313
v 0.368020822606748 0.026632219233636 -0.368378860940699
v 0.378538834099429 0.0178976493350891 -0.231014556270971
v 0.374271462968743 0.00480577856590589 -0.205898555784832
v -0.105665405570906 0.138273968022428 -0.45940869487489
v 0.381908758390618 0.0242522212807803 -0.26412158151901
v 0.162120206369136 -0.0789701014818475 -0.231540492295906
v -0.339770229485833 0.0935323314640256 -0.199944486674706
v 0.382989975702101 -0.0187044391243207 -0.439543208920459
v 0.38546401 -0.01185404 -0.19908801
v 0.38157201 -0.00095723 -0.45821899
v 0.411637797278801 -0.0279620685247815 -0.269474696611995
v 0.401340179705602 0.0152924296485495 -0.201380540205841
v 0.39964852260465 0.0159404333020746 -0.45222756748493
v 0.405064160299101 0.0268626883193378 -0.385064422352282
v 0.421899460694008 0.0022670169704522 -0.163138806156854
v 0.434019382386817 -0.0121869146282181 -0.160440463873834
v 0.423061077548059 -0.00112365635156212 -0.484364437532653
v 0.428368 0.01050608 -0.16415501
v 0.474694782712329 -0.0258575930662217 -0.448571904450198
v 0.460210127201564 -0.00325594550154153 -0.140555953555096
v 0.449260747385588 0.0133276290147155 -0.487532933709715
v 0.474946025890837 -0.0276179241958279 -0.252367737805797
v 0.507141837762948 -0.0296968886089753 -0.397445375685516
v 0.47156802 -0.00091322 -0.51391602
v -0.289271777354775 0.137145621319447 -0.278970576308772
v 0.468847103625283 -0.019295534102886 -0.168495060761628
v 0.490612388817372 -0.00139396481386661 -0.142813425300439
v 0.47693899 0.01042953 -0.145354
v 0.484460340088588 0.0160724468761674 -0.500336539212654
v 0.480819670157286 -0.0138958927789303 -0.151157434122531
v 0.0530124579197011 0.115850530632566 -0.264184354767404
v 0.507786015118076 0.00799038692813029 -0.521808596018308
v 0.51011002 -0.01244349 -0.52011502
v 0.50511826030423 0.0211748018504284 -0.205737648835787
v 0.50517394120707 0.0135931014618122 -0.167265969178066
v 0.516898551076406 -0.00327733762664598 -0.161956563856994
v -0.0389680769000189 0.0782443727077496 -0.169084850932079
v 0.50613441061236 -0.0169895292649972 -0.173838255470797
v 0.525805043579057 0.0141097187988671 -0.188130298657728
v 0.506502895870149 -0.0245694285245944 -0.220748089500975
v -0.333121796279492 0.0414355118744457 -0.159537429174687
v 0.5382614609677 0.0198656454427992 -0.492391106146374
v 0.534059704823815 -0.00128276197161877 -0.525934657223982
v 0.53507475567596 -0.012026864347384 -0.51989514434743
v 0.535988950202209 0.000276861450830782 -0.180580411019585
v 0.557368168197451 0.0249667856628119 -0.399385758081344
v 0.543611511831782 0.0267749631467818 -0.348226723788685
v 0.54948348505049 -0.0104745049823481 -0.514718598176336
v 0.546604478866191 -0.0151479433315655 -0.218213854053155
v 0.535045258249418 -0.0235739612362805 -0.481215758196009
v 0.545795813351266 0.0248733412840562 -0.442824323034969
v 0.557108766845482 0.0116824429031738 -0.505400233154518
v 0.557754618752287 0.00203826549734721 -0.5129995797857
v 0.549200091614603 0.0134753155475283 -0.223800873761998
v 0.539453504374888 0.0234732172088844 -0.280806922397301
v -0.335962454822036 0.0692687984081315 -0.175817208867775
v -0.0128842374158955 -0.190510977436151 -0.253032875170006
v 0.562512695349201 -0.0252758972343363 -0.343677646389064
v 0.568771 -0.00100123 -0.243725
v -0.250632239667589 0.138211872284139 -0.28857519584927
v 0.572338245900778 -0.0138193336159579 -0.276997244777484
v 0.57790601 -0.01159188 -0.47539601
v 0.568781503953461 0.0158083852448035 -0.472374633390817
v 0.576847443066843 -0.000325997288835101 -0.489409279132281
v 0.115506635621202 -0.0887705895458306 -0.511448039673911
v 0.577201405713607 0.00746529479083322 -0.284117546612704
v 0.0253391651182522 0.130046285956522 -0.353844878473432
v -0.305543658737505 0.141362617590923 -0.317655199334199
v 0.58298802 -0.01234588 -0.31122199
v -0.0323162108719975 0.0261463066197908 -0.742976071730302
v 0.587671899790359 -0.00203626324935986 -0.462548594697371
v -0.186220076174759 -0.00221345123829422 -0.127191163898407
v 0.590276584648598 -0.0127093177338125 -0.369989856760867
v 0.58767402 0.01029747 -0.33523101
v -0.455749897221583 0.106844044031617 -0.324354646219864
v 0.495679752944945 0.0242192854452906 -0.452553896252229
v 0.579553586035521 0.0167775259642692 -0.428653690058752
v 0.590679783847337 0.0107195883326775 -0.376018482823994
v 0.59282798 0.00036134 -0.34155101
v 0.595364881731969 -2.86666384754203e-05 -0.414058802531081
v 0.166421876071443 -0.106559827391931 -0.311725127877576
v 0.154939206343025 0.108745959348977 -0.358383977053044
v 0.231307473948821 -0.0194699376099808 -0.215804460871521
v -0.0350377468046082 -0.173656867048669 -0.188772621551651
v -0.070252178686546 -0.155866642344538 -0.19463
v -0.143629825617952 0.147085216095002 -0.415100895779094
v -0.416577459080527 0.0147215057113782 -0.186949109093808
v -0.329812339129387 -0.0202892919990452 -0.61987548349182
v 0.151867865434198 -0.0752931701207229 -0.515421319299371
v 0.564342507933758 -0.0259435741667807 -0.388572411614507
v -0.310480610629271 -0.139685185596421 -0.446844887449498
v 0.526237151480518 -0.0280423779559443 -0.440921003698542
v 0.0471235407678631 0.0244232059779991 -0.693342022944271
v -0.0283311462142415 -0.0303979865249654 -0.691836703389846
v 0.00789027465072237 -0.134798762734824 -0.354374499534244
v -0.472993249365049 0.0966747071670869 -0.291214006178003
v 0.521941143122943 -0.0269939243905449 -0.334560617821583
v 0.0594059775324924 -0.0591955825808348 -0.172249000153696
v -0.0824420157456961 0.183561279372078 -0.345447464229497
v -0.000191299376284766 0.0280843123476498 -0.688472000358847
v 0.0308508344976574 0.0491466308267261 -0.608551902137398
v 0.431254231961734 0.0273729340297061 -0.314379940039853
v -0.113213520203213 0.108870025050181 -0.564988539240481
v 0.474068913940761 -0.0237382584229417 -0.201676444902181
v 0.250707243814528 0.0273862453699666 -0.582117113016764
v -0.149788768794754 -0.0736469032361841 -0.629890238311699
v 0.511652439177099 0.0274585909713794 -0.304577085315648
v -0.178414797697017 -0.0951387262482102 -0.601840805933002
v -0.412002300991968 -0.0282341277290272 -0.186621603368608
v -0.31380453244224 -0.145371945045198 -0.348690003942948
v 0.112552282693372 -0.111761735211928 -0.431120736985034
v 0.0222137480906107 0.202020796058967 -0.389536343304872
v -0.0941293345295209 0.0993929862070874 -0.144766647665292
v -0.0427919487046984 -0.03074610715579 -0.134201469383206
v 0.12626113540743 -0.113974939002572 -0.392924354439371
v -0.303247191664447 -0.0843514127554453 -0.178437561672043
v 0.0165144397058663 0.169557981655644 -0.284632396905055
v 0.145348414159251 -0.0105929166930535 -0.0927919459475956
v -0.0523137411215249 0.157609398485079 -0.31993002145783
v -0.143938602222431 -0.118571825924127 -0.201435097777221
v 0.138836101181913 0.0139660485059951 -0.134058261456456
v -0.128384411647126 -0.115911362324747 -0.121989029120807
v 0.271541054374192 0.0155492594240606 -0.158309892095924
v -0.00204595801293718 -0.0296477285014176 -0.726770740006361
v -0.00545366509259832 0.133938197196799 -0.385406227187271
v -0.0998906833039325 0.0403398279111652 -0.130730865642411
v 0.0955726069924799 0.108268476049741 -0.265484173993785
v -0.0431444961738292 0.140092354015055 -0.33594319345012
v 0.463978199540128 0.0199422323558628 -0.185796500607619
v 0.0821164969378915 -0.075151689852931 -0.196167743461947
v -0.094683839524368 -0.0291324177355897 -0.655059396490454
v 0.0232917093977089 0.175092335628941 -0.371724103647258
v -0.0490750956561839 -0.110857405888356 -0.207600859693867
v -0.263913707767117 -0.018562108942054 -0.138112666140473
v -0.125730337363863 0.116339416224561 -0.199515398720522
v 0.0515051158556558 0.181220873603358 -0.285663062019584
v 0.00205124036829665 0.198680241267186 -0.35504963972415
v -0.302642170148961 0.143743107495653 -0.358567710636932
v 0.0352529049194177 -0.179385494004093 -0.335390302396155
v -0.248347376965514 -0.0704915517777084 -0.619815262802063
v -0.479781001876125 0.00207991752463117 -0.221702502265502
v -0.0621802052225817 0.13683646613962 -0.439754305212648
v -0.060352045172478 0.104604455487641 -0.197488908314751
v 0.425823542393399 -0.0296438259148439 -0.37979002498418
v -0.030309587874188 0.115505440989102 -0.226304045373597
v -0.392905541076469 0.0900698049148079 -0.528581636146561
v 0.0282509367954864 0.10629705526875 -0.227902077810246
v -0.0202271351265328 0.162022960936901 -0.296928867447655
v -0.0728306174913602 0.13480191629295 -0.0365633051531316
v -0.0278157153378096 -0.0203920441327928 -0.77985501
v -0.400438122283245 -0.128068170255189 -0.332996615065634
v -0.473705785619018 0.0833993790824968 -0.259775250497755
v 0.249998234249433 -0.0418449269608492 -0.242233530499656
v 0.0294483749061347 -0.0820418472825133 -0.191299621202936
v 0.149900593652359 -0.0203505814489931 -0.175650640248713
v -0.457874706774595 -0.09134532630036 -0.480019477721585
v 0.00420790387002681 -0.170355055309668 -0.324752366551635
v 0.205624445802005 -0.0835564873507751 -0.268203523852234
v -0.321584644292811 0.136893359047588 -0.427448173742586
v 0.542184063343745 0.0250511578405912 -0.315254144072036
v 0.539466431401478 -0.0291907811959288 -0.369600245312451
v -0.0412178921784833 -7.97074925687981e-05 -0.130164883261853
v -0.0728701164511732 0.136841081819444 -0.0820880010560344
v 0.0672053449151566 0.118924300498437 -0.425915969811347
v 0.032574092745837 -0.130898736520771 -0.379619694547125
v -0.184197465513799 -0.0776508469739178 -0.623969725181066
v -0.380064682507407 0.130995324179855 -0.342488756585507
v -0.0290744571298391 -0.168741970596977 -0.384713826003101
v 0.0585126379977896 -0.0285884952150933 -0.667812912200562
v 0.0467180686459096 -0.126360848884062 -0.413988993606744
v 0.141060819702838 0.0104479550817499 -0.0984619325139921
v 0.548930916909816 -0.0253102496702986 -0.305217976528304
v -0.0938235164006344 -0.100591300039335 -0.178308755784906
v 0.43114202353206 0.0191567059516429 -0.197455344567706
v -0.00569106294800673 -0.0259336427593899 -0.761049406563048
v -0.00982725502664094 0.198457992044515 -0.39528366041323
v 0.0350535636298085 0.175881445042813 -0.334090031079329
v 0.046394266345584 -0.180339516763144 -0.271367820580961
v -0.102880977639774 -0.0962385322590132 -0.109442644715767
v -0.423269708904973 0.0518461991359307 -0.199774752665278
v -0.165587571717221 -0.00416027391905563 -0.72627098401064
v 0.0216139198948777 -0.0850860188969962 -0.57491766899578
v 0.58711302 -0.0141317278464741 -0.346625738939562
v -0.07855131364359 -0.0273134089905168 -0.745908206641213
v -0.152753870767595 0.0637097378209394 -0.636442319321501
v 0.0500764861522996 -0.187241818976646 -0.385653439683453
v -0.0133966430989113 -0.0784596072308641 -0.173184276603955
v 0.00770405830138866 0.175516907250571 -0.404969818313138
v -0.523482080000361 0.061194278525966 -0.275637451876397
v 0.00853939389401526 -0.201398528480985 -0.346496834171893
v 0.0464108020410171 -0.0340039988673693 -0.61355566332259
v -0.0484296803271372 0.0217818031714474 -0.769066547503283
v -0.136512620474563 -0.0731341564539682 -0.134751981524698
v -0.361029916723895 0.117686819491198 -0.248587581501604
v -0.23848172726248 -0.0410135809723648 -0.641027466587668
v -0.0194269028879671 -0.167538775051509 -0.350274804372441
v 0.00758514232026504 0.194622300133348 -0.29192464436216
v -0.434435880571384 -0.113210962190298 -0.290446301351097
v -0.0140007249926031 -0.0316552197651756 -0.638240073108858
v 0.0043213100482379 0.0182618580994171 -0.762762283212938
v -0.0448162327313861 0.153552816739789 -0.224879889130425
v -0.0454995130463555 -0.0509635060295304 -0.142831484765497
v -0.526390661627941 0.0718900058312519 -0.30152419463781
v 0.0848381039763146 -0.116490118493568 -0.280929712512264
v 0.270479433690411 -0.0152881368142053 -0.202080811311936
v -0.463228245683247 -0.108563241766237 -0.321340203839808
v 0.03269 0.0275588502601454 -0.619449894779074
v -0.47575977860339 0.102125397497368 -0.345737463084144
v -0.0039664406262323 -0.0561985853649419 -0.618404934692595
v -0.0318578777241894 0.134497162653003 -0.416418948424864
v -0.164366823135653 0.0125626399038835 -0.717781435752446
v -0.106768105304257 0.163317953779695 -0.220271605997334
v 0.0856089425712392 -0.0273990012796154 -0.683681488269094
v -0.170243161963979 -0.0412651637103625 -0.650238702036931
v -0.522125390978265 0.0385906069154401 -0.253029284447781
v -0.119181180046242 -0.027330696840455 -0.695698534509772
v 0.209682483171109 0.0125610869082394 -0.109455781688822
v -0.546290241926246 0.048631213979197 -0.429490673051199
v -0.501596406597835 0.0551086825983296 -0.485545247158629
v 0.24657742167842 0.0126672305516046 -0.222808669344273
v -0.0349201398569417 -0.146733291343594 -0.068510391322095
v -0.371219720579324 -0.132323260218223 -0.307170938671836
v -0.383058057250578 0.127139350379242 -0.306780688654352
v 0.396277464984102 -0.0196468876879941 -0.231957311496133
v -0.323541052754678 0.140822131107929 -0.382598426762734
v 0.564713581168455 0.0167641698237077 -0.309678569571426
v 0.551882995849839 -0.000948460193768819 -0.211681048005505
v 0.0795878606543799 -0.106995793302441 -0.247639397053455
v 0.563504569274068 0.0133768928526442 -0.258686773987653
v -0.477817664692012 0.0333830964677306 -0.223218844740651
v 0.0367522506756294 0.197266226526375 -0.291155690161713
v -0.158284953207323 -0.1192440024442 -0.0264299916532153
v 0.338898134385966 0.0163640008244863 -0.487397979382922
v -0.466113717811194 -0.100501356194099 -0.446907119088713
v 0.0250937805101795 -0.172876813116335 -0.290541275238403
v 0.0370655051425959 0.202563806922303 -0.362417100036911
v -0.110199328149106 -0.149334494660033 -0.393050111614368
v -0.183585925829593 0.0401197868726678 -0.647201098727173
v 0.262085424140912 0.0347805642551569 -0.247775736242586
v 0.0161968626758668 -0.201015542903847 -0.322044289334841
v 0.583039080513493 -0.0185997638372394 -0.404641060933463
v 0.440493191802192 0.0232658513895942 -0.233529145600033
v 0.140569645411672 -0.106087419362932 -0.279798222536972
v -0.195921834293016 0.112824088737477 -0.0437935769181167
v -0.0490586918270562 0.170217012378396 -0.191076
v -0.00743807300102344 -0.200600216682461 -0.392224844140232
v 0.555458385917494 -0.0186740893682097 -0.255337455923299
v -0.502472521912064 0.0941978538671985 -0.353559413705714
v 0.067279811087301 -0.125124684337763 -0.377717183293697
v -0.531444954475777 0.068214572746472 -0.423185651610371
v -0.0508804236580912 0.177637558016623 -0.219705472971031
v -0.050107363061681 0.0129558666837821 -0.789875372139624
v -0.0838585881586105 -0.0875336942824309 -0.140388146438229
v -0.0915029274799346 -0.124136791058392 -0.0543479320367113
v -0.0640031825791065 0.160949304538175 -0.0294836289501322
v 0.0524168718258293 0.194047956885435 -0.279139301137796
v -0.025020142343647 -0.128780261803917 -0.0643755189215621
v -0.152468045660207 -0.0921210608041705 -0.0890410194125764
v -0.126401603274393 -0.156385008763865 -0.0220138851690506
v -0.00807687335591542 -0.0488207947939157 -0.148884749300095
v 0.0568154531059645 0.110485442267915 -0.464658050126282
v -0.434478026552392 -0.119214706567996 -0.341115362586347
v -0.0968927850705631 0.109230480297884 -0.0799017443653252
v -0.0797654766500675 -0.124196453256042 -0.108967463706405
v 0.0103794314016746 0.0873388434907112 -0.193514665702758
v -0.0920965930983062 0.146390126598443 -0.337385044403361
v -0.0397544927883511 -0.14131811156463 -0.353177516049539
v 0.00200481738288485 -0.134048942132905 -0.311437299051403
v -0.192863008941891 -0.0846979229756521 -0.130572622102196
v 0.396495979185553 0.000537183841392694 -0.182493080461902
v -0.18530094076312 -0.0910550197353813 -0.063708135215443
v -0.292989761963591 -0.0868251396602753 -0.593215935666062
v -0.0508950838095086 -0.174789700985749 -0.41853201
v -0.559725925722576 -0.0090217185852541 -0.434870918157228
v -0.27683687597061 -0.0154311289347093 -0.63763128248842
v -0.172605795304616 0.112904624584307 -0.0189873586836809
v -0.22100860224973 0.0854300004501181 -0.0691162503323043
v -0.146340045037573 -0.124555123997573 -0.041550842546612
v -0.503166592901169 0.0263618867266194 -0.236012444497031
v -0.0253305961424592 0.166551715400737 -0.375652388738181
v -0.138610497433859 -0.0324462036396037 -0.654084474063042
v 0.122923498675469 0.00355534048908872 -0.661349582095655
v 0.0343105326911679 -0.176251713526288 -0.243855631161923
v -0.13555899886479 0.131337742568109 -0.234613112274019
v -0.188309305619505 -0.0986421742650491 -0.08734421996564
v -0.109528771240662 0.173905969399603 -0.301752021810021
v -0.0548320987630793 0.18311181762136 -0.284633564034852
v -0.523723885656588 -0.0663027450990073 -0.281134277466526
v -0.0766951448328652 -0.0300917624014693 -0.696128494237433
v 0.225266773370672 0.0942591074414063 -0.347068478437348
v 0.0541354512992777 -0.127793381775792 -0.347242069078311
v 0.452549925301664 -0.0186395653096882 -0.480478174171922
v 0.181864092530037 0.0142440032469173 -0.62630958146902
v -0.408652973742701 0.145541526292536 -0.448914347091496
v 0.243694593175456 -0.070717984592373 -0.273610692808477
v 0.267970890962911 -0.0778244949882829 -0.322589445538653
v 0.354458626971992 0.00686506400953809 -0.227696227717153
v 0.254624389132643 0.0545706274776275 -0.451324943978658
v -0.193876450645219 0.150479079310415 -0.387612064224406
v 0.536968139203605 0.00700732327571458 -0.520742717380761
v 0.228624942059707 0.0449790489587771 -0.23458284777794
v -0.0768049660598185 0.15887633 -1.53690444341482e-05
v -0.00569423710190054 0.0291660612147559 -0.635786275625929
v -0.0990871903686108 -0.138615463817399 -0.468716477441442
v -0.12850529377561 -0.152511255982759 -0.365931209788058
v -0.0700309531889968 -0.143180512126497 -0.405676689826415
v -0.201845239277521 -0.089230972206763 -0.112478772672127
v 0.431191829539878 -0.0210408699089364 -0.196853674128593
v -0.0532510100355526 -0.157351245834031 -0.274249315885317
v 0.0566226846081913 -0.0955821995328041 -0.214841138463339
v 0.0567337811742404 -0.1085519740958 -0.500022424634591
v 0.0136761611319354 0.0389040119078954 -0.148679303924815
v -0.332939502655154 -0.0614215838782584 -0.603145503021847
v -0.0516301182726629 -0.155046276786676 -0.226143060312568
v 0.0291767580046443 0.126935961603865 -0.408114416575925
v -0.0961595579798806 0.12060921757821 -0.111454274111143
v -0.445635073717886 0.0758690219921247 -0.228906404883347
v -0.0348533047603986 0.139386799157367 -0.0796454690070356
v 0.137458221050369 -0.0541834804086434 -0.193167552521799
v 0.576595141026986 -0.0234633809279975 -0.436372632165709
v -0.0986747287857238 0.158107635711079 -0.383377061001075
v 0.331157149246256 -0.0126331640088756 -0.157963053584302
v -0.00998130211754245 0.161484132351317 -0.235776891932925
v -0.410701224179379 0.123322877624293 -0.337425873635572
v -0.43146224838422 0.112660463455269 -0.294184544413338
v -0.147576609666583 -0.00660669839434929 -0.75567368586155
v -0.121232980800222 -0.17395805989775 -0.302501130028095
v -0.368334843878466 -0.0337988146499721 -0.167731416629276
v -0.0910730994543494 -0.0049874163831218 -0.126835368243286
v -0.0446560066063342 0.0376992750372665 -0.137922604157096
v -0.547854039747295 0.0223099249023744 -0.451461435250014
v -0.0914758523173489 0.16701561039711 -0.402481986669586
v -0.0725161746107399 0.162092061695726 -0.390579501731734
v 0.030151187380588 -0.204001373115862 -0.367428306394091
v -0.151241661628894 0.0905021990485165 -0.082626589660703
v -0.288121135823971 0.0686602101608026 -0.159144867609863
v -0.0644362675738276 0.159034965985422 -0.362504405883459
v -0.358579866985943 -0.136913732545583 -0.386852923970358
v -0.179693724195336 -0.10184567 -0.105786754251501
v 0.114535989621302 -0.00201513858621796 -0.697696544579401
f 1 3 2
f 1 2 5
f 1 4 3
f 1 6 4
f 1 5 6
f 2 3 7
f 2 13 5
f 2 7 13
f 3 4 8
f 3 9 7
f 3 8 9
f 4 6 10
f 4 18 8
f 4 10 18
f 5 12 6
f 5 908 12
f 5 13 908
f 6 16 10
f 6 12 24
f 6 24 16
f 7 9 21
f 7 14 13
f 7 21 14
f 8 15 9
f 8 19 15
f 8 18 20
f 8 20 19
f 9 15 17
f 9 17 21
f 10 16 922
f 10 922 18
f 11 523 122
f 11 122 744
f 11 176 207
f 11 556 176
f 11 207 358
f 11 358 523
f 11 744 556
f 12 22 25
f 12 908 22
f 12 25 24
f 13 14 852
f 13 852 965
f 13 965 908
f 14 21 884
f 14 884 852
f 15 837 17
f 15 19 823
f 15 823 837
f 16 24 29
f 16 29 922
f 17 31 21
f 17 837 31
f 18 27 20
f 18 922 27
f 19 20 849
f 19 849 823
f 20 27 913
f 20 913 849
f 21 33 30
f 21 30 884
f 21 31 882
f 21 882 33
f 22 23 32
f 22 908 23
f 22 38 25
f 22 32 37
f 22 37 38
f 23 28 32
f 23 965 28
f 23 908 965
f 24 25 35
f 24 45 29
f 24 35 45
f 25 38 35
f 26 853 28
f 26 28 965
f 26 30 853
f 26 884 30
f 26 852 884
f 26 965 852
f 27 43 48
f 27 922 43
f 27 48 775
f 27 775 913
f 28 44 32
f 28 41 44
f 28 853 41
f 29 840 39
f 29 39 922
f 29 45 840
f 30 33 52
f 30 52 42
f 30 42 853
f 31 40 730
f 31 837 40
f 31 730 709
f 31 709 842
f 31 842 882
f 32 36 37
f 32 44 36
f 33 50 55
f 33 842 50
f 33 55 52
f 33 882 842
f 34 786 40
f 34 40 823
f 34 864 47
f 34 47 951
f 34 951 786
f 34 823 849
f 34 849 913
f 34 913 864
f 35 38 868
f 35 51 45
f 35 868 51
f 36 49 37
f 36 44 74
f 36 74 49
f 37 790 38
f 37 49 64
f 37 64 790
f 38 790 868
f 39 62 43
f 39 43 922
f 39 832 62
f 39 840 832
f 40 786 730
f 40 837 823
f 41 42 69
f 41 853 42
f 41 77 44
f 41 69 77
f 42 52 53
f 42 53 63
f 42 63 69
f 43 82 48
f 43 62 82
f 44 202 74
f 44 77 78
f 44 78 202
f 45 51 61
f 45 61 896
f 45 896 840
f 46 814 47
f 46 47 864
f 46 48 721
f 46 775 48
f 46 721 814
f 46 864 775
f 47 814 951
f 48 82 743
f 48 743 721
f 49 512 64
f 49 74 102
f 49 102 512
f 50 65 55
f 50 75 65
f 50 958 75
f 50 842 709
f 50 709 958
f 51 58 54
f 51 54 60
f 51 868 58
f 51 60 61
f 52 56 53
f 52 55 56
f 53 56 73
f 53 66 63
f 53 73 66
f 54 58 71
f 54 71 60
f 55 65 56
f 56 65 68
f 56 68 73
f 57 85 108
f 57 951 85
f 57 108 959
f 57 730 786
f 57 959 730
f 57 786 951
f 58 64 72
f 58 790 64
f 58 70 71
f 58 72 70
f 58 868 790
f 59 924 513
f 59 513 935
f 59 545 574
f 59 873 545
f 59 574 555
f 59 555 924
f 59 935 873
f 60 81 61
f 60 71 79
f 60 79 81
f 61 81 80
f 61 80 896
f 62 67 97
f 62 832 67
f 62 97 82
f 63 66 76
f 63 92 69
f 63 76 92
f 64 91 72
f 64 512 91
f 65 75 68
f 66 73 928
f 66 928 76
f 67 122 97
f 67 856 122
f 67 832 785
f 67 785 856
f 68 84 73
f 68 75 89
f 68 89 84
f 69 780 77
f 69 92 109
f 69 109 780
f 70 86 71
f 70 72 86
f 71 83 79
f 71 86 83
f 72 91 86
f 73 84 88
f 73 88 928
f 74 202 98
f 74 98 722
f 74 947 102
f 74 722 947
f 75 93 89
f 75 958 93
f 76 99 92
f 76 928 99
f 77 110 78
f 77 780 110
f 78 127 98
f 78 98 202
f 78 110 127
f 79 94 81
f 79 83 94
f 80 81 87
f 80 87 95
f 80 95 785
f 80 785 896
f 81 94 87
f 82 97 119
f 82 119 962
f 82 962 743
f 83 86 96
f 83 96 94
f 84 100 88
f 84 89 106
f 84 106 100
f 85 90 641
f 85 814 90
f 85 828 108
f 85 641 126
f 85 126 828
f 85 951 814
f 86 91 105
f 86 105 96
f 87 94 101
f 87 101 95
f 88 111 99
f 88 99 928
f 88 100 111
f 89 93 106
f 90 103 675
f 90 721 103
f 90 690 641
f 90 675 690
f 90 814 721
f 91 104 105
f 91 512 104
f 92 99 117
f 92 117 109
f 93 115 106
f 93 118 115
f 93 801 118
f 93 958 801
f 94 96 112
f 94 107 101
f 94 112 107
f 95 101 972
f 95 113 785
f 95 972 113
f 96 105 116
f 96 116 112
f 97 630 119
f 97 122 630
f 98 127 131
f 98 131 722
f 99 111 117
f 100 106 114
f 100 114 111
f 101 107 972
f 102 125 512
f 102 906 125
f 102 947 906
f 103 123 675
f 103 962 123
f 103 721 962
f 104 116 105
f 104 725 116
f 104 125 132
f 104 512 125
f 104 132 725
f 106 115 114
f 107 112 116
f 107 116 972
f 108 828 120
f 108 120 857
f 108 857 959
f 109 130 110
f 109 110 780
f 109 117 194
f 109 194 130
f 110 128 127
f 110 130 128
f 111 114 117
f 113 744 122
f 113 122 856
f 113 972 744
f 113 856 785
f 114 115 117
f 115 793 117
f 115 118 859
f 115 859 793
f 116 725 121
f 116 121 972
f 117 793 194
f 118 120 702
f 118 857 120
f 118 702 772
f 118 772 859
f 118 801 857
f 119 750 124
f 119 124 962
f 119 630 750
f 120 126 659
f 120 828 126
f 120 659 702
f 121 725 556
f 121 556 744
f 121 744 972
f 122 523 630
f 123 124 768
f 123 962 124
f 123 768 139
f 123 139 970
f 123 970 675
f 124 165 134
f 124 134 768
f 124 750 165
f 125 237 132
f 125 137 237
f 125 906 137
f 126 379 141
f 126 141 659
f 126 970 379
f 126 641 970
f 127 128 133
f 127 133 131
f 128 130 136
f 128 136 133
f 129 722 909
f 129 947 722
f 129 829 774
f 129 774 906
f 129 909 829
f 129 906 947
f 130 194 135
f 130 135 348
f 130 348 136
f 131 133 177
f 131 177 157
f 131 157 909
f 131 909 722
f 132 237 203
f 132 203 628
f 132 628 556
f 132 556 725
f 133 136 180
f 133 180 177
f 134 148 138
f 134 138 768
f 134 153 148
f 134 165 153
f 135 232 188
f 135 188 348
f 135 194 353
f 135 353 232
f 136 208 180
f 136 348 208
f 137 167 169
f 137 774 167
f 137 169 237
f 137 906 774
f 138 706 139
f 138 139 768
f 138 148 199
f 138 199 221
f 138 221 706
f 139 156 140
f 139 140 970
f 139 183 156
f 139 242 183
f 139 706 242
f 140 151 150
f 140 150 970
f 140 156 151
f 141 163 211
f 141 379 163
f 141 218 171
f 141 171 694
f 141 211 218
f 141 694 659
f 142 146 144
f 142 144 147
f 142 153 146
f 142 147 168
f 142 148 153
f 142 199 148
f 142 168 199
f 143 149 151
f 143 152 149
f 143 151 161
f 143 911 152
f 143 161 183
f 143 183 190
f 143 190 911
f 144 146 941
f 144 155 147
f 144 160 155
f 144 919 160
f 144 941 919
f 145 466 341
f 145 341 824
f 145 691 466
f 145 620 691
f 145 874 620
f 145 824 874
f 146 153 173
f 146 173 941
f 147 155 905
f 147 905 168
f 149 150 151
f 149 182 150
f 149 152 196
f 149 196 182
f 150 182 163
f 150 163 970
f 151 156 161
f 152 158 196
f 152 911 158
f 153 165 173
f 154 187 165
f 154 165 750
f 154 523 187
f 154 630 523
f 154 750 630
f 155 160 166
f 155 166 905
f 156 183 161
f 157 179 162
f 157 162 829
f 157 177 181
f 157 181 179
f 157 829 909
f 158 164 174
f 158 911 164
f 158 174 878
f 158 878 196
f 159 618 200
f 159 200 681
f 159 259 648
f 159 710 259
f 159 648 618
f 159 681 680
f 159 680 685
f 159 685 710
f 160 172 166
f 160 224 172
f 160 919 224
f 162 800 167
f 162 167 829
f 162 179 206
f 162 206 848
f 162 848 800
f 163 182 209
f 163 209 211
f 163 379 970
f 164 178 174
f 164 204 178
f 164 911 204
f 165 198 173
f 165 187 198
f 166 172 184
f 166 184 185
f 166 185 905
f 167 742 169
f 167 800 742
f 167 774 829
f 168 212 199
f 168 892 212
f 168 905 892
f 169 203 237
f 169 632 203
f 169 270 632
f 169 742 270
f 170 749 437
f 170 437 883
f 170 608 745
f 170 804 608
f 170 745 749
f 170 883 804
f 171 218 238
f 171 238 920
f 171 920 253
f 171 253 933
f 171 351 694
f 171 933 351
f 172 189 184
f 172 224 189
f 173 198 903
f 173 903 941
f 174 178 910
f 174 193 878
f 174 910 193
f 175 303 442
f 175 761 303
f 175 389 665
f 175 701 389
f 175 442 701
f 175 665 761
f 176 203 266
f 176 628 203
f 176 233 207
f 176 266 233
f 176 556 628
f 177 180 872
f 177 872 181
f 178 204 910
f 179 181 186
f 179 186 192
f 179 192 206
f 180 208 819
f 180 819 872
f 181 201 186
f 181 216 201
f 181 872 216
f 182 196 191
f 182 191 209
f 183 220 190
f 183 242 220
f 184 189 185
f 185 189 866
f 185 866 241
f 185 241 905
f 186 223 192
f 186 201 845
f 186 815 223
f 186 845 815
f 187 231 198
f 187 217 244
f 187 523 217
f 187 754 231
f 187 244 754
f 188 214 348
f 188 638 214
f 188 232 933
f 188 720 638
f 188 933 720
f 189 224 229
f 189 229 866
f 190 204 911
f 190 969 204
f 190 220 254
f 190 254 969
f 191 196 210
f 191 234 209
f 191 210 234
f 192 226 206
f 192 223 226
f 193 213 878
f 193 910 213
f 194 793 353
f 195 197 903
f 195 973 197
f 195 198 231
f 195 903 198
f 195 231 235
f 195 235 973
f 196 225 210
f 196 878 225
f 197 941 903
f 197 919 941
f 197 973 919
f 199 212 827
f 199 827 221
f 200 618 736
f 200 741 681
f 200 736 741
f 201 216 246
f 201 246 239
f 201 239 845
f 203 938 266
f 203 632 938
f 204 256 228
f 204 228 910
f 204 969 256
f 205 240 292
f 205 961 240
f 205 292 341
f 205 341 466
f 205 466 961
f 206 226 915
f 206 915 848
f 207 217 358
f 207 961 217
f 207 233 240
f 207 240 961
f 208 348 214
f 208 214 737
f 208 737 301
f 208 301 819
f 209 769 211
f 209 234 251
f 209 251 769
f 210 222 219
f 210 219 234
f 210 225 222
f 211 918 218
f 211 769 918
f 212 257 268
f 212 892 257
f 212 268 827
f 213 230 225
f 213 225 878
f 213 228 230
f 213 910 228
f 214 638 326
f 214 326 737
f 215 236 224
f 215 224 973
f 215 235 258
f 215 973 235
f 215 258 236
f 216 261 246
f 216 255 261
f 216 819 255
f 216 872 819
f 217 281 244
f 217 296 281
f 217 961 296
f 217 523 358
f 218 918 238
f 219 222 227
f 219 227 243
f 219 275 234
f 219 243 275
f 220 242 760
f 220 290 254
f 220 760 290
f 221 242 706
f 221 963 242
f 221 827 316
f 221 316 963
f 222 225 230
f 222 230 227
f 223 850 226
f 223 278 850
f 223 960 278
f 223 815 960
f 224 912 229
f 224 236 912
f 224 919 973
f 226 850 915
f 227 230 247
f 227 245 243
f 227 247 245
f 228 247 230
f 228 256 247
f 229 912 866
f 231 756 235
f 231 287 300
f 231 807 287
f 231 300 756
f 231 754 807
f 232 353 351
f 232 351 933
f 233 264 240
f 233 939 264
f 233 266 939
f 234 950 251
f 234 275 950
f 235 756 258
f 236 893 252
f 236 252 912
f 236 258 893
f 238 273 846
f 238 918 273
f 238 846 540
f 238 540 920
f 239 246 304
f 239 286 267
f 239 267 960
f 239 304 286
f 239 815 845
f 239 960 815
f 240 264 292
f 241 248 263
f 241 912 248
f 241 263 905
f 241 866 912
f 242 963 760
f 243 245 269
f 243 269 275
f 244 281 282
f 244 282 284
f 244 284 283
f 244 283 754
f 245 247 262
f 245 262 783
f 245 298 269
f 245 783 298
f 246 261 327
f 246 327 304
f 247 256 262
f 248 252 280
f 248 912 252
f 248 272 263
f 248 280 272
f 249 253 260
f 249 933 253
f 249 260 274
f 249 274 955
f 249 279 720
f 249 900 279
f 249 720 933
f 249 955 900
f 250 838 425
f 250 425 902
f 250 437 467
f 250 925 437
f 250 467 838
f 250 902 925
f 251 290 302
f 251 747 290
f 251 302 769
f 251 950 747
f 252 277 299
f 252 893 277
f 252 299 280
f 253 920 260
f 254 897 265
f 254 265 969
f 254 290 321
f 254 321 897
f 255 334 261
f 255 301 343
f 255 819 301
f 255 343 334
f 256 265 262
f 256 969 265
f 257 263 272
f 257 892 263
f 257 813 268
f 257 272 289
f 257 289 813
f 258 305 893
f 258 898 305
f 258 756 898
f 259 647 648
f 259 655 647
f 259 663 655
f 259 710 663
f 260 297 274
f 260 733 297
f 260 920 733
f 261 334 327
f 262 265 897
f 262 897 783
f 263 892 905
f 264 285 309
f 264 939 285
f 264 294 292
f 264 309 294
f 266 871 939
f 266 940 871
f 266 938 940
f 267 288 271
f 267 271 960
f 267 286 295
f 267 295 288
f 268 287 827
f 268 887 287
f 268 813 887
f 269 313 275
f 269 298 313
f 270 276 311
f 270 740 276
f 270 311 306
f 270 306 632
f 270 742 740
f 271 288 278
f 271 278 960
f 272 280 888
f 272 888 289
f 273 308 319
f 273 918 308
f 273 319 310
f 273 310 846
f 274 297 966
f 274 966 955
f 275 313 889
f 275 354 797
f 275 889 354
f 275 797 950
f 276 350 311
f 276 349 350
f 276 765 349
f 276 740 915
f 276 915 765
f 277 317 299
f 277 305 317
f 277 893 305
f 278 288 818
f 278 818 923
f 278 923 850
f 279 347 776
f 279 900 347
f 279 638 720
f 279 776 638
f 280 299 336
f 280 336 888
f 281 719 282
f 281 296 328
f 281 328 719
f 282 948 284
f 282 719 948
f 283 284 307
f 283 307 338
f 283 767 324
f 283 324 807
f 283 338 767
f 283 807 754
f 284 293 307
f 284 943 293
f 284 948 943
f 285 307 293
f 285 293 360
f 285 901 307
f 285 360 309
f 285 939 871
f 285 871 940
f 285 940 901
f 286 318 295
f 286 304 318
f 287 887 300
f 287 324 316
f 287 316 827
f 287 807 324
f 288 295 323
f 288 323 818
f 289 367 330
f 289 330 887
f 289 336 367
f 289 888 336
f 289 887 813
f 290 314 302
f 290 312 321
f 290 747 312
f 290 760 314
f 291 626 308
f 291 308 918
f 291 315 332
f 291 918 315
f 291 332 900
f 291 753 626
f 291 900 753
f 292 294 331
f 292 331 341
f 293 943 360
f 294 309 907
f 294 907 331
f 295 318 329
f 295 329 323
f 296 361 328
f 296 691 361
f 296 466 691
f 296 961 466
f 297 344 325
f 297 325 966
f 297 733 344
f 298 936 313
f 298 783 339
f 298 339 936
f 299 317 342
f 299 342 336
f 300 887 322
f 300 322 898
f 300 898 756
f 301 320 343
f 301 737 320
f 302 314 671
f 302 315 769
f 302 777 315
f 302 671 777
f 303 716 442
f 303 489 716
f 303 761 489
f 304 826 318
f 304 327 704
f 304 704 826
f 305 340 317
f 305 371 340
f 305 855 371
f 305 898 855
f 306 311 387
f 306 387 370
f 306 370 938
f 306 938 632
f 307 902 338
f 307 901 902
f 308 835 319
f 308 626 835
f 309 360 802
f 309 802 907
f 310 319 879
f 310 540 846
f 310 885 540
f 310 879 885
f 311 350 390
f 311 390 387
f 312 355 321
f 312 337 355
f 312 747 337
f 313 333 346
f 313 936 333
f 313 346 889
f 314 964 671
f 314 760 964
f 315 779 332
f 315 918 769
f 315 777 779
f 316 324 836
f 316 836 748
f 316 748 963
f 317 340 342
f 318 886 329
f 318 826 886
f 319 373 359
f 319 359 879
f 319 835 373
f 320 326 483
f 320 737 326
f 320 392 343
f 320 483 392
f 321 368 345
f 321 345 897
f 321 355 368
f 322 330 352
f 322 887 330
f 322 352 366
f 322 366 898
f 323 329 369
f 323 784 356
f 323 356 818
f 323 369 784
f 324 767 495
f 324 495 821
f 324 821 894
f 324 894 836
f 325 363 335
f 325 335 966
f 325 344 362
f 325 362 363
f 326 505 483
f 326 776 505
f 326 638 776
f 327 334 734
f 327 734 704
f 328 718 357
f 328 357 719
f 328 361 718
f 329 383 369
f 329 886 383
f 330 367 352
f 331 880 341
f 331 382 386
f 331 907 382
f 331 386 880
f 332 389 762
f 332 779 389
f 332 762 900
f 333 339 346
f 333 936 339
f 334 343 937
f 334 937 734
f 335 363 914
f 335 914 967
f 335 967 966
f 336 342 372
f 336 891 367
f 336 372 891
f 337 364 355
f 337 950 364
f 337 747 950
f 338 425 495
f 338 902 425
f 338 495 767
f 339 365 346
f 339 783 365
f 340 371 342
f 341 880 824
f 342 371 372
f 343 392 937
f 344 810 362
f 344 733 496
f 344 496 771
f 344 771 810
f 345 375 365
f 345 365 783
f 345 368 375
f 345 783 897
f 346 374 354
f 346 354 889
f 346 365 374
f 347 762 759
f 347 759 844
f 347 900 762
f 347 844 776
f 349 833 350
f 349 728 833
f 349 923 728
f 349 765 923
f 350 843 390
f 350 833 843
f 351 353 772
f 351 659 694
f 351 702 659
f 351 772 702
f 352 367 366
f 353 859 772
f 353 793 859
f 354 374 380
f 354 380 952
f 354 952 797
f 355 364 368
f 356 758 728
f 356 728 923
f 356 809 758
f 356 784 809
f 356 923 818
f 357 388 394
f 357 718 388
f 357 394 948
f 357 948 719
f 359 373 391
f 359 391 378
f 359 378 879
f 360 524 791
f 360 943 524
f 360 791 830
f 360 830 802
f 361 399 388
f 361 388 718
f 361 691 399
f 362 384 363
f 362 393 384
f 362 810 393
f 363 384 822
f 363 822 914
f 364 377 368
f 364 952 377
f 364 950 797
f 364 797 952
f 365 380 374
f 365 375 380
f 366 367 381
f 366 381 855
f 366 855 898
f 367 891 381
f 368 377 375
f 369 383 397
f 369 397 402
f 369 402 784
f 370 387 592
f 370 592 395
f 370 395 940
f 370 940 938
f 371 381 372
f 371 855 381
f 372 381 891
f 373 957 391
f 373 835 957
f 375 377 380
f 376 751 782
f 376 811 751
f 376 782 753
f 376 753 914
f 376 766 811
f 376 914 766
f 377 952 380
f 378 391 404
f 378 404 400
f 378 400 885
f 378 885 879
f 382 398 386
f 382 802 398
f 382 907 802
f 383 407 397
f 383 834 407
f 383 826 704
f 383 704 834
f 383 886 826
f 384 393 401
f 384 401 822
f 385 441 443
f 385 894 441
f 385 443 946
f 385 796 748
f 385 748 894
f 385 964 796
f 385 946 964
f 386 398 406
f 386 406 880
f 387 390 816
f 387 816 440
f 387 440 945
f 387 945 592
f 388 399 394
f 389 781 665
f 389 701 762
f 389 779 781
f 390 414 816
f 390 843 414
f 391 408 404
f 391 957 408
f 392 424 413
f 392 413 735
f 392 483 424
f 392 735 937
f 393 411 401
f 393 746 411
f 393 810 746
f 394 399 917
f 394 917 524
f 394 524 948
f 395 592 804
f 395 799 729
f 395 729 901
f 395 804 799
f 395 901 940
f 396 409 398
f 396 398 802
f 396 820 409
f 396 791 773
f 396 773 820
f 396 830 791
f 396 802 830
f 397 433 402
f 397 407 433
f 398 409 406
f 399 691 416
f 399 416 917
f 400 404 415
f 400 415 831
f 400 831 496
f 400 496 921
f 400 540 885
f 400 921 540
f 401 411 418
f 401 418 822
f 402 422 410
f 402 410 809
f 402 433 422
f 402 809 784
f 403 412 803
f 403 833 412
f 403 825 414
f 403 414 843
f 403 803 825
f 403 843 833
f 404 408 415
f 405 428 407
f 405 407 834
f 405 452 428
f 405 727 452
f 405 704 734
f 405 834 704
f 405 734 727
f 406 409 426
f 406 426 968
f 406 968 880
f 407 428 433
f 408 770 415
f 408 751 770
f 408 957 751
f 409 820 426
f 410 445 412
f 410 412 758
f 410 422 445
f 410 758 809
f 411 419 418
f 411 746 419
f 412 445 803
f 412 728 758
f 412 833 728
f 413 424 471
f 413 458 444
f 413 444 735
f 413 471 458
f 414 459 440
f 414 440 816
f 414 825 459
f 415 770 890
f 415 865 831
f 415 890 865
f 416 421 423
f 416 620 421
f 416 423 812
f 416 691 620
f 416 812 917
f 417 439 421
f 417 421 620
f 417 968 439
f 417 620 874
f 417 874 824
f 417 824 968
f 418 419 432
f 418 432 766
f 418 766 822
f 419 436 432
f 419 870 436
f 419 746 870
f 420 444 464
f 420 841 444
f 420 468 453
f 420 453 727
f 420 464 468
f 420 727 734
f 420 734 937
f 420 937 841
f 421 439 423
f 422 433 449
f 422 449 445
f 423 439 431
f 423 431 773
f 423 773 869
f 423 869 812
f 424 483 446
f 424 446 588
f 424 588 471
f 425 944 495
f 425 838 862
f 425 862 944
f 426 430 439
f 426 820 430
f 426 439 968
f 427 443 456
f 427 946 443
f 427 456 457
f 427 457 899
f 427 899 946
f 428 450 433
f 428 452 450
f 429 434 436
f 429 865 434
f 429 436 870
f 429 771 496
f 429 496 831
f 429 870 771
f 429 831 865
f 430 431 439
f 430 773 431
f 430 820 773
f 432 436 435
f 432 435 811
f 432 811 766
f 433 450 449
f 434 435 436
f 434 770 435
f 434 890 770
f 434 865 890
f 435 770 811
f 437 541 467
f 437 749 541
f 437 925 883
f 438 699 481
f 438 481 745
f 438 745 608
f 438 608 945
f 438 945 699
f 440 459 699
f 440 699 945
f 441 448 443
f 441 447 448
f 441 462 447
f 441 472 462
f 441 732 472
f 441 894 732
f 442 716 473
f 442 473 798
f 442 949 701
f 442 798 949
f 443 448 456
f 444 458 464
f 444 841 735
f 445 449 847
f 445 847 803
f 446 473 601
f 446 895 473
f 446 483 895
f 446 601 588
f 447 455 448
f 447 460 455
f 447 462 460
f 448 455 456
f 449 450 461
f 449 461 974
f 449 470 847
f 449 974 470
f 450 452 461
f 451 469 454
f 451 454 825
f 451 470 469
f 451 847 470
f 451 825 803
f 451 803 847
f 452 453 461
f 452 727 453
f 453 463 461
f 453 916 463
f 453 468 916
f 454 490 459
f 454 459 825
f 454 469 479
f 454 479 490
f 455 755 456
f 455 460 476
f 455 476 805
f 455 805 755
f 456 500 457
f 456 486 500
f 456 755 486
f 457 500 465
f 457 465 761
f 457 761 665
f 457 665 781
f 457 781 899
f 458 488 464
f 458 471 488
f 459 490 491
f 459 491 723
f 459 723 699
f 460 462 476
f 461 463 974
f 462 472 480
f 462 752 476
f 462 480 752
f 463 916 974
f 464 474 468
f 464 482 474
f 464 487 482
f 464 488 487
f 465 513 489
f 465 489 761
f 465 500 513
f 467 541 715
f 467 624 838
f 467 877 624
f 467 715 877
f 468 474 916
f 469 470 475
f 469 475 479
f 470 916 475
f 470 974 916
f 471 501 488
f 471 588 501
f 472 789 480
f 472 732 764
f 472 764 953
f 472 953 789
f 473 514 601
f 473 716 514
f 473 895 798
f 474 482 475
f 474 475 916
f 475 484 479
f 475 482 484
f 476 485 492
f 476 752 485
f 476 492 805
f 477 624 640
f 477 862 624
f 477 640 953
f 477 764 944
f 477 953 764
f 477 944 862
f 478 656 494
f 478 494 731
f 478 674 656
f 478 683 674
f 478 881 683
f 478 806 695
f 478 695 881
f 478 731 806
f 479 484 497
f 479 497 490
f 480 589 502
f 480 502 752
f 480 789 589
f 481 521 493
f 481 493 745
f 481 510 521
f 481 723 510
f 481 699 723
f 482 927 484
f 482 487 927
f 483 505 895
f 484 516 497
f 484 517 516
f 484 927 517
f 485 499 492
f 485 520 499
f 485 502 520
f 485 752 502
f 486 508 500
f 486 634 508
f 486 627 634
f 486 755 627
f 487 488 504
f 487 504 927
f 488 501 518
f 488 518 504
f 489 513 924
f 489 924 716
f 490 503 491
f 490 497 503
f 491 503 510
f 491 510 723
f 492 499 851
f 492 627 805
f 492 851 627
f 493 511 541
f 493 629 511
f 493 521 629
f 493 541 749
f 493 749 745
f 494 656 645
f 494 645 778
f 494 657 731
f 494 778 657
f 495 788 821
f 495 944 788
f 496 733 921
f 497 531 503
f 497 516 531
f 498 506 640
f 498 792 506
f 498 640 877
f 498 715 792
f 498 877 715
f 499 520 522
f 499 522 851
f 500 508 935
f 500 935 513
f 501 509 518
f 501 601 509
f 501 588 601
f 502 529 520
f 502 589 529
f 503 530 510
f 503 531 530
f 504 518 739
f 504 739 519
f 504 519 927
f 505 776 844
f 505 844 949
f 505 949 895
f 506 507 640
f 506 717 507
f 506 787 717
f 506 929 787
f 506 792 929
f 507 536 589
f 507 717 536
f 507 589 789
f 507 953 640
f 507 789 953
f 508 634 539
f 508 539 854
f 508 854 935
f 509 601 514
f 509 514 932
f 509 534 518
f 509 932 534
f 510 515 521
f 510 530 515
f 511 715 541
f 511 629 930
f 511 792 715
f 511 929 792
f 511 930 929
f 514 924 532
f 514 532 932
f 514 716 924
f 515 554 521
f 515 530 537
f 515 537 554
f 516 517 525
f 516 525 531
f 517 519 527
f 517 927 519
f 517 533 525
f 517 527 533
f 518 534 549
f 518 549 739
f 519 739 527
f 520 528 522
f 520 526 528
f 520 529 526
f 521 554 551
f 521 551 629
f 522 528 535
f 522 535 851
f 524 869 791
f 524 917 869
f 524 943 948
f 525 560 531
f 525 533 557
f 525 557 560
f 526 548 528
f 526 529 548
f 527 543 533
f 527 739 543
f 528 548 535
f 529 536 559
f 529 589 536
f 529 559 548
f 530 531 546
f 530 546 537
f 531 585 546
f 531 560 585
f 532 555 605
f 532 924 555
f 532 611 573
f 532 573 932
f 532 605 611
f 533 543 557
f 534 552 549
f 534 932 552
f 535 548 544
f 535 544 550
f 535 550 851
f 536 956 559
f 536 839 566
f 536 566 956
f 536 717 839
f 537 546 563
f 537 558 554
f 537 561 558
f 537 563 561
f 538 553 547
f 538 547 562
f 538 787 553
f 538 562 572
f 538 572 839
f 538 717 787
f 538 839 717
f 539 582 542
f 539 542 854
f 539 587 582
f 539 757 587
f 539 634 757
f 540 921 920
f 542 547 545
f 542 545 873
f 542 562 547
f 542 582 562
f 542 873 854
f 543 580 557
f 543 739 580
f 544 548 568
f 544 564 550
f 544 568 564
f 545 547 569
f 545 569 574
f 546 585 563
f 547 553 570
f 547 570 569
f 548 559 568
f 549 552 577
f 549 593 576
f 549 576 739
f 549 577 593
f 550 564 579
f 550 579 757
f 550 757 634
f 550 634 851
f 551 554 602
f 551 602 616
f 551 616 930
f 551 930 629
f 552 561 567
f 552 571 561
f 552 567 577
f 552 581 571
f 552 573 581
f 552 932 573
f 553 565 584
f 553 929 565
f 553 584 570
f 553 787 929
f 554 558 575
f 554 575 609
f 554 609 602
f 555 574 605
f 557 578 560
f 557 580 578
f 558 561 571
f 558 571 575
f 559 583 568
f 559 956 583
f 560 578 598
f 560 598 585
f 561 563 594
f 561 591 567
f 561 594 591
f 562 582 572
f 563 585 604
f 563 604 594
f 564 568 583
f 564 586 579
f 564 583 586
f 565 616 584
f 565 930 616
f 565 929 930
f 566 572 590
f 566 839 572
f 566 590 956
f 567 591 577
f 569 570 603
f 569 606 574
f 569 603 595
f 569 595 606
f 570 584 596
f 570 596 603
f 571 600 575
f 571 581 600
f 572 582 590
f 573 610 581
f 573 611 610
f 574 619 605
f 574 606 619
f 575 600 642
f 575 642 609
f 576 614 580
f 576 580 739
f 576 593 612
f 576 612 614
f 577 591 867
f 577 867 593
f 578 580 617
f 578 617 598
f 579 586 597
f 579 597 587
f 579 587 757
f 580 614 617
f 581 610 600
f 582 587 590
f 583 597 586
f 583 956 597
f 584 599 596
f 584 607 599
f 584 616 607
f 585 598 613
f 585 613 604
f 587 597 590
f 590 597 956
f 591 594 615
f 591 615 867
f 592 608 804
f 592 945 608
f 593 867 612
f 594 604 615
f 595 603 931
f 595 639 606
f 595 636 639
f 595 931 636
f 596 599 622
f 596 623 603
f 596 622 623
f 598 617 613
f 599 607 622
f 600 610 644
f 600 644 642
f 602 609 633
f 602 631 616
f 602 633 631
f 603 623 931
f 604 613 621
f 604 621 615
f 605 635 611
f 605 619 625
f 605 625 635
f 606 625 619
f 606 639 625
f 607 616 631
f 607 645 622
f 607 631 645
f 609 642 633
f 610 611 635
f 610 635 648
f 610 647 644
f 610 648 647
f 612 621 614
f 612 615 621
f 612 867 615
f 613 617 621
f 614 621 617
f 618 648 736
f 622 643 623
f 622 858 643
f 622 645 858
f 623 643 637
f 623 637 931
f 624 877 640
f 624 862 838
f 625 648 635
f 625 639 736
f 625 736 648
f 626 782 751
f 626 751 957
f 626 753 782
f 626 957 835
f 627 851 634
f 627 755 805
f 631 633 778
f 631 778 645
f 633 642 778
f 636 637 646
f 636 931 637
f 636 876 639
f 636 646 876
f 637 643 904
f 637 904 646
f 639 876 736
f 641 690 970
f 642 644 651
f 642 651 926
f 642 653 778
f 642 926 653
f 643 650 904
f 643 942 650
f 643 858 942
f 644 647 651
f 645 656 942
f 645 942 858
f 646 652 808
f 646 904 652
f 646 808 876
f 647 655 651
f 649 650 654
f 649 904 650
f 649 654 652
f 649 652 904
f 650 660 654
f 650 942 660
f 651 655 658
f 651 658 926
f 652 654 662
f 652 662 763
f 652 763 808
f 653 726 657
f 653 657 778
f 653 667 684
f 653 926 667
f 653 684 726
f 654 660 664
f 654 661 662
f 654 664 661
f 655 663 658
f 656 674 738
f 656 738 942
f 657 724 795
f 657 954 724
f 657 726 954
f 657 795 731
f 658 663 666
f 658 666 667
f 658 667 926
f 660 672 664
f 660 738 672
f 660 942 738
f 661 669 662
f 661 664 672
f 661 670 669
f 661 672 670
f 662 669 763
f 663 676 666
f 663 710 676
f 666 677 667
f 666 676 934
f 666 934 677
f 667 677 678
f 667 678 684
f 668 669 673
f 668 763 669
f 668 673 688
f 668 688 689
f 668 689 741
f 668 741 876
f 668 876 763
f 669 670 679
f 669 679 673
f 670 672 679
f 671 779 777
f 671 899 779
f 671 946 899
f 671 964 946
f 672 674 683
f 672 738 674
f 672 683 679
f 673 679 688
f 675 970 690
f 676 685 697
f 676 710 685
f 676 697 686
f 676 686 934
f 677 934 678
f 678 682 684
f 678 934 682
f 679 683 861
f 679 861 688
f 680 681 712
f 680 711 685
f 680 712 711
f 681 708 712
f 681 860 708
f 681 741 794
f 681 794 860
f 682 696 684
f 682 687 696
f 682 934 687
f 683 693 861
f 683 881 693
f 684 696 954
f 684 954 726
f 685 711 697
f 686 698 687
f 686 687 934
f 686 697 698
f 687 698 696
f 688 863 689
f 688 861 693
f 688 693 863
f 689 700 860
f 689 863 700
f 689 794 741
f 689 860 794
f 692 703 806
f 692 817 703
f 692 724 707
f 692 707 817
f 692 795 724
f 692 731 795
f 692 806 731
f 693 695 700
f 693 881 695
f 693 700 863
f 695 703 700
f 695 806 703
f 696 698 705
f 696 705 954
f 697 705 698
f 697 711 705
f 700 703 708
f 700 708 860
f 701 759 762
f 701 949 759
f 703 713 708
f 703 817 713
f 705 711 714
f 705 714 954
f 707 712 713
f 707 714 712
f 707 713 817
f 707 875 714
f 707 724 875
f 708 713 712
f 709 730 959
f 709 959 958
f 711 712 714
f 714 875 954
f 721 743 962
f 724 954 875
f 729 799 925
f 729 902 901
f 729 925 902
f 732 944 764
f 732 894 788
f 732 788 944
f 733 920 921
f 735 841 937
f 736 876 741
f 740 742 800
f 740 800 848
f 740 848 915
f 746 810 771
f 746 771 870
f 748 796 963
f 748 836 894
f 751 811 770
f 753 900 971
f 753 971 914
f 759 949 844
f 760 963 964
f 763 876 808
f 765 915 850
f 765 850 923
f 766 914 822
f 773 791 869
f 775 864 913
f 779 899 781
f 785 832 896
f 788 894 821
f 796 964 963
f 798 895 949
f 799 804 883
f 799 883 925
f 801 958 857
f 812 869 917
f 824 880 968
f 832 840 896
f 854 873 935
f 857 958 959
f 900 955 971
f 914 971 967
f 955 966 967
f 955 967 971
