v -0.513720225138078 0.558833 0.0108732958469425
v -0.508944085611349 0.576773305191328 -0.0101182423630662
v -0.508137047731968 0.551554774893881 -0.0148398667695375
v -0.503790439050219 0.581291551969628 0.0100571221219471
v -0.505525337102789 0.518118 -0.00571595777177522
v -0.503688990489106 0.519443103633896 0.0128338072039691
v -0.487116178792121 0.50672711007877 0.0151715095457121
v -0.486354805028101 0.51354520719576 -0.0178943935237292
v -0.478674205120141 0.543256088057678 0.0220819318313175
v -0.470659010584961 0.548837070978587 -0.0227341321374752
v -0.471793171200982 0.592946378991038 -0.0128155290883758
v -0.47139976268867 0.488699399414902 -0.00138055590359373
v -0.455207961690137 0.609193736133924 0.0125911122601049
v -0.436939640466769 0.603055894684946 0.0227167762013445
v -0.435142 0.471597 -0.017916
v -0.426904771435351 0.517496292107948 0.031695491082776
v -0.398590971624204 0.462535462491739 0.0297347819685355
v -0.421162176729357 0.652328993229514 0.0147908147550013
v -0.419892 0.657721 -0.010428
v -0.408461479494501 0.437128923165203 -0.0128193464216525
v -0.396666201920516 0.692207265430958 -0.00681278451367793
v -0.384677610194989 0.675054342357028 -0.023470502723412
v -0.388294944224443 0.6213671657914 -0.0317162556430298
v -0.388378989082269 0.415658131925815 -0.0132427620047452
v -0.373699736430869 0.709235698645395 0.0190060699278134
v -0.379314 0.618774 0.034906
v -0.385077243594068 0.660585323937409 0.0273226668472663
v -0.35484514144608 0.39877006927664 -0.0201479711966399
v -0.387000402445113 0.507112691104096 -0.0384820999265869
v -0.369848673570779 0.58914554945504 0.0369132964084192
v -0.373765131923844 0.575422131923844 -0.0382221335243789
v -0.364484 0.637363 0.033524
v -0.360002 0.426509 -0.023759
v -0.35689135008278 0.603475274482229 0.0487748914904923
v -0.345206146788358 0.426591634563968 0.0300749275413337
v -0.338556465476891 0.556992430768991 0.0467052231240699
v -0.333792663785741 0.370640218081547 0.0182708801115356
v -0.350204705111788 0.634068655841881 -0.0465240286899375
v -0.344023029469717 0.659144654237834 -0.0381171655324705
v -0.348899952839695 0.753044770949485 -0.0117117822451747
v -0.343778148474632 0.369255386013289 -0.00430502816496433
v -0.341907 0.670799 0.036386
v -0.324990733925022 0.375029600889898 -0.0213648744691114
v -0.329936655079875 0.470592216780604 -0.0423989719016694
v -0.330164223519379 0.588710908898535 -0.0551457409336378
v -0.333671243869345 0.632602319428744 0.0520895688236847
v -0.304040157050664 0.698005671460175 0.0392469797414354
v -0.308747901283622 0.341733856521978 -0.00368306367573118
v -0.314823332013964 0.704174691884039 -0.0356959130483303
v -0.291333444624157 0.759176351285981 0.030012738952563
v -0.307974709827207 0.806097689234934 0.00856262162188656
v -0.315853 0.553741 -0.05351
v -0.305638271853645 0.519562846754297 0.0550288704437517
v -0.314066029796704 0.582930345399682 0.0573114354366993
v -0.308217666834192 0.611925239013866 0.0571444467608883
v -0.307180867766651 0.386113446406919 0.0276669608733837
v -0.29969350500323 0.761174450057529 -0.0271014011054721
v -0.309674 0.65875 -0.040757
v -0.306281 0.429902 -0.031422
v -0.307348522568563 0.803043556626739 -0.0112709113021989
v -0.300626 0.564332 0.050107
v -0.309255825585341 0.466258836132866 0.04403643978763
v -0.294494710092836 0.621638149526645 -0.0563711472869898
v -0.287710429781058 0.503492200142421 -0.0536755573375767
v -0.288772 0.572989 -0.050096
v -0.262349166089656 0.667269700473427 -0.0487336639326944
v -0.283091 0.579764 0.051666
v -0.282633820666511 0.328286428624331 0.0146933827035337
v -0.270431695813649 0.559904915140455 0.0586963806844266
v -0.278077332540722 0.834556095308346 -0.00685829181401422
v -0.279939396361969 0.638693624342575 0.0490662082917806
v -0.278627083488818 0.319523947094584 -0.0163183535026578
v -0.269992952490777 0.318985428791799 0.024660379506536
v -0.266239256417178 0.335738807355045 -0.0258266486066671
v -0.266303409327305 0.284894940803499 0.0214965118301913
v -0.267343871573344 0.307166848259377 -0.0100648926596853
v -0.26679 0.602926 0.055326
v -0.255445174709769 0.557093203392128 -0.0584805653978305
v -0.252172503219917 0.303027159483448 0.00858352435774718
v -0.266322452498452 0.285953773980891 -0.0266546543947284
v -0.259061086685813 0.800241474348341 -0.0248284410651539
v -0.257741681028091 0.461739672424351 -0.0404819083722442
v 0.184323162041211 0.591588073490694 0.022851900755114
v -0.255478151669635 0.274291531771074 0.035490850998163
v -0.25424075 0.47089975 0.0427905
v -0.246762268554759 0.269473317499255 -0.0160628225693948
v -0.249732 0.29475 -0.032627
v -0.25411436945703 0.247699560957132 0.0341566169955119
v -0.251877432262802 0.30145069807319 -0.00851096674263898
v -0.246753352186544 0.253186135626248 -0.0397994620159582
v -0.241705317216771 0.336557420343654 0.0312957772417318
v -0.239870709956483 0.685904882480125 0.0481785730256155
v -0.250799490464461 0.52101785543727 0.0574873652707756
v -0.235523323625319 0.200262466834769 0.0452659525642744
v -0.244581 0.493883 0.056052
v -0.244706413451516 0.510170059547527 -0.0602024163084341
v -0.240925633207174 0.281422795562364 0.0133140043997956
v -0.239300479228751 0.442481646621263 0.0471331018036262
v -0.244947 0.85702 -0.006198
v -0.236916383964956 0.237290977346926 0.0244918369399016
v -0.2495155793862 0.238116691129522 -0.0289344167213003
v -0.0117203984050303 0.963434682010017 -0.00410005053854771
v -0.236244191783835 0.221856839883204 -0.0456760400297151
v -0.221718638200632 0.831322447235219 0.0219575221660361
v -0.241242143040932 0.871620516676648 0.00311172857998376
v -0.228125716620506 0.232078564953231 0.047160694378449
v -0.233747454238524 0.194291091695602 -0.0390080306035675
v -0.228656759524737 0.298708 0.031928403681805
v -0.228244 0.477403 -0.050673
v -0.181100266261889 0.498759176059968 0.0578592730266248
v -0.22122498542928 0.47151498542928 0.0521261156463395
v -0.221242025908897 0.25804002811398 0.0403710965073867
v -0.226018559567584 0.316892773277794 -0.029494550252186
v -0.227063690120175 0.294011894269344 0.00738089129754312
v -0.222125 0.282875 0.017817
v -0.221529125948496 0.287945285477512 -0.0177978499533472
v -0.215267086776136 0.575765441479257 0.0583722487223874
v -0.221111874392626 0.266296249754672 -0.0184962095853791
v -0.216826139766215 0.506592343846736 0.0666881459383502
v -0.220442308948782 0.175295849635208 -0.0512914852051917
v -0.217947691140956 0.165028951122915 0.0427427320163031
v -0.217622485971909 0.163388183417057 0.0517159969084192
v -0.190372070831277 0.587317626700517 -0.0563068397228875
v -0.20857603201726 0.286239439932298 -0.00289981102860759
v -0.214598724665916 0.229879416409199 -0.0255608899466505
v -0.211839 0.293621 -0.018448
v -0.213067 0.533475 0.070972
v -0.211028787933716 0.283386401621144 -0.0213250752727919
v -0.212719385911919 0.158963340869533 -0.0407768171718958
v -0.201623601065126 0.258184009304231 -0.0277946689243419
v -0.199271482523091 0.26537333638861 0.0268087735081275
v -0.206123872596943 0.206892579228299 0.0321439362725969
v -0.205555983710921 0.191179734760577 0.0527688320364465
v -0.206556954248158 0.205889048985666 -0.0486124130718691
v -0.205098049138748 0.472513893484839 -0.0616161408192193
v -0.200870563009627 0.439789560068127 0.0511922847146604
v -0.208364 0.462227 0.060707
v -0.204354420574514 0.289219866258417 0.0166849241556686
v -0.199812915894273 0.807568916817055 -0.0293242145642084
v -0.206053982213987 0.27889708159678 -0.036493098570207
v -0.205927510221411 0.686897728057325 -0.0488295732451706
v -0.202007 0.544951 -0.067965
v -0.202727026872538 0.176157551014402 -0.0354869635330016
v -0.2011 0.87927 -0.005854
v -0.20685376774776 0.435268937457228 -0.0492706555118476
v -0.198044947649391 0.158620829701939 0.0398414600215284
v -0.20321835139123 0.137932946648232 -0.0545378109150727
v -0.20011568735579 0.215296344604934 -0.0354798135200435
v -0.199940559598505 0.234065501169276 0.0412188007333093
v -0.202015306866169 0.238860470366689 -0.0420802073785333
v -0.202997419537027 0.272966902933666 0.0388550654557566
v 0.0665719521069014 0.684525410402088 0.0348807739569575
v -0.196774021467842 0.128693893135968 -0.0453859170982361
v -0.198400394599568 0.126870361728733 0.0494594312994898
v -0.18866 0.134515283732885 0.059096727222316
v -0.181131760623393 0.915449760181333 0.000248518703107471
v -0.184873565655828 0.463452409871498 0.0639852594755603
v -0.185337779416206 0.524513055679708 -0.0557737240329861
v -0.189386401260777 0.179114972219415 0.0425631435246034
v -0.193682682465248 0.304209853695567 -0.0289931294915167
v -0.183406778913455 0.160836492554635 0.0514473373640356
v -0.185310533013303 0.211117670564795 -0.0415549347579092
v -0.199297559301765 0.377425667925741 0.0404952124802301
v -0.175492960229181 0.850875250179468 -0.0198311129019855
v -0.189176078643619 0.179847155514604 -0.0417943464904637
v -0.185217113802702 0.279278734645523 0.00080724610296482
v -0.180023586544357 0.229082861456034 -0.047164374140388
v -0.183640963549877 0.104619183272085 -0.0500755683767709
v -0.18475402906232 0.231989707890661 -0.0327046691493884
v -0.191677994113402 0.159783786121801 -0.0547996710567597
v -0.181770136876908 0.107666827804127 -0.058091087899242
v -0.179612 0.256862 0.040841
v -0.179612 0.284781 -0.018197
v -0.179983799841677 0.10128693476893 0.0577391746844874
v -0.166084022548685 0.808189373871641 0.0319288735875891
v -0.178602327300466 0.244619232217155 0.0309926507424086
v -0.177346138718494 0.282478132325771 0.0164207677005032
v -0.17719554523386 0.288409135105777 0.0297242024491007
v -0.173957 0.293789 -0.025166
v 0.154315148208543 0.555347900403144 0.030352667803271
v -0.172826 0.385143 -0.042208
v -0.164319236327281 0.485083763149967 0.0682030791429149
v -0.163132522965442 0.0969864684027201 0.0476356028696131
v -0.174501 0.5673 -0.069364
v -0.179612 0.140372 0.044273
v -0.169089 0.441825 0.053912
v -0.1650740233435 0.122306454408117 0.0533386749924938
v -0.169464201899724 0.22330346434672 0.0477588223510907
v -0.149468660611831 0.527255713473382 0.0573807137385607
v -0.166643230942984 0.273615519501148 -0.0278842961058533
v -0.167900591725384 0.117619319483974 -0.0575930614800118
v -0.165614 0.434938 0.061912
v -0.162608374864888 0.0783295587419372 -0.054074
v 0.212270751627973 0.54833523677419 0.0202600261633141
v -0.167765495381074 0.126169322786815 -0.0478979503977647
v -0.162647 0.381746 0.042637
v -0.163044918003371 0.251631917389285 0.040060975550434
v -0.162934949865246 0.259487009599774 0.0288991484392597
v -0.163280840323906 0.872625342754912 0.0150125757340321
v -0.15674975592323 0.090390052409259 -0.0601454415279209
v -0.155986 0.174736 -0.041218
v -0.125360804092997 0.573926814983361 0.074997054958437
v -0.151231537559867 0.445971477554147 -0.063990965169869
v -0.164909 0.432435 -0.056625
v -0.15538533181588 0.241608397208664 -0.0400307228097898
v -0.153585838840643 0.411880683412948 0.0498123599664551
v -0.15272217789907 0.068841414815731 0.0545
v -0.148395552468859 0.330741785355053 0.0330875799504625
v -0.146814 0.457865 -0.054619
v -0.155108158111286 0.484616197020986 -0.0559758019508022
v -0.15555 0.475389 0.057231
v 0.0347428992381375 0.736977247003608 0.032382431045065
v -0.150207 0.452258 0.055033
v -0.144552 0.916221 0.005073
v -0.147461888544386 0.432163 -0.0549115994941686
v -0.147163091861279 0.205804150209468 0.0362179555375005
v -0.138386315959969 0.929869453938983 -0.00545831164799457
v -0.146999993281452 0.168806640995288 0.0417069094142621
v -0.362469642758026 0.49917977624405 0.043618392345688
v 0.328975181260778 0.444669897889585 -0.00393118518608831
v -0.147945 0.899256 -0.004161
v -0.147409635978732 0.229553778718966 0.0413556172277708
v -0.144552 0.193528 -0.049982
v -0.145683 0.427936 0.058184
v -0.13759105782921 0.0676846284059145 0.061662456610158
v -0.146871465461518 0.156553279175773 -0.052290914994984
v -0.101361831851543 0.536385925740612 -0.107100929337254
v -0.144552 0.191266 0.051242
v -0.119172517110606 0.907609951764897 -0.00411396428309104
v -0.145182370292864 0.153445486827372 0.0528618873341407
v -0.140384081902728 0.0845613553556475 -0.0554203046271489
v -0.137319 0.42593 -0.059182
v -0.139538 0.947385 0.002044
v -0.126133105912073 0.186213520070408 0.0478147947656169
v -0.140790319627141 0.0855775835525696 0.0544262809293642
v -0.134625078120401 0.604548554302322 0.0558928447922602
v -0.133874318396439 0.460672025064829 0.0675323012931041
v -0.132626294821276 0.0689566468155602 -0.0490397528317956
v -0.12382565830078 0.128112937312087 -0.0547662867950656
v -0.130088105200747 0.552699673562788 -0.0641228454916924
v -0.132591721052993 0.441177104219014 -0.0527849429088108
v -0.130972633796112 0.142425479555269 -0.0427754328009497
v -0.125325 0.932055 0.005078
v -0.120126381857444 0.0436317875103022 0.0571543211937882
v -0.116150774651887 0.888962158384879 0.0123516036192732
v -0.123431321807674 0.132471310873469 0.044226397822762
v -0.129490671575324 0.0573069908441275 0.050193859961983
v -0.118585887637418 0.1523047190715 -0.0533620598141043
v -0.133918776520179 0.0550018475566653 -0.0510951924477356
v -0.121250703578083 0.0621470107282513 -0.0582594716654717
v -0.118336009309376 0.17118405585593 -0.0417465113663596
v -0.118548 0.426253 -0.060764
v -0.139723160484048 0.516369628767551 0.0720123670617694
v -0.131191335595366 0.465200453787684 -0.0671080659752692
v -0.121302171273399 0.410089421524436 -0.0485187556980794
v -0.141745057745773 0.270662910177128 0.0044643614049306
v -0.110965222905252 0.156120909565605 0.0517743574965999
v -0.117122045465956 0.851889611692783 -0.0218177474957547
v -0.0944631633590884 0.73294685454309 0.0440098976753483
v -0.108694890365571 0.467580222578569 0.0550994838143783
v -0.125228585923766 0.327288513710235 -0.0304374546312273
v -0.120030819332932 0.156362441651338 0.0411975690128643
v -0.108991110748956 0.270312644131576 -0.0116230183264091
v -0.107616898292148 0.132915519526589 -0.0416750740407276
v -0.11231227635464 0.113999864190275 0.0560335502454006
v -0.113228417732676 0.056836374412075 0.0545294908990831
v -0.107048957844849 0.105892674959829 -0.0464837171698288
v -0.103858111178507 0.0485898389114972 -0.0521775636018522
v -0.104836847708804 0.43170946351893 0.0662743611859699
v -0.103856594951442 0.959320299133102 -0.00540633476477406
v -0.101050633294556 0.968586056732292 0.00613616963079799
v -0.0821142914086108 0.919958806816447 0.00511573998599772
v -0.0902761043219122 0.128613361100246 0.0484599588398146
v -0.106131264945064 0.046178888579327 0.0606482818567771
v -0.110656268419009 0.0391553062021118 -0.0518332728189369
v -0.0757130631248192 0.563811382725764 0.0740253298032892
v -0.0879279706819667 0.0341249323587048 -0.0589738617816474
v -0.0890060957399598 0.0319556331957486 0.051055120494183
v -0.0885466457652803 0.0947865009792239 0.0447324788057911
v -0.09925200001087 0.827042131912184 0.028598592649533
v -0.0885660495912725 0.995064790144036 0.00194043395872622
v 0.0573312795147504 0.623076944507583 0.0408334915853022
v -0.0785070589574777 0.976610941042522 0.00514581182747341
v -0.0785368559542406 0.0786926112280879 -0.0455512777274727
v -0.0776070862002345 0.0746052632834258 0.0515574205012997
v -0.0800804265282434 0.0995118269557697 0.0558251789546688
v -0.0725234225873206 0.429668235207532 0.0495876694106385
v -0.074431 0.454783 -0.068437
v 0.259959437088952 0.550303295709336 0.0109493004597035
v -0.0688632950346428 0.10122889961651 -0.0481438777446675
v -0.0700813790590177 0.256039251650616 0.00748510952976878
v -0.0715327426689594 0.102089750062252 0.0461087146892304
v -0.0632196967629556 0.0716563575343929 0.0448766112225653
v -0.0555511791199459 0.0863786864568731 0.0492376256819406
v -0.0557211022964735 0.0755020052878869 -0.0433792817000205
v -0.063685 0.995952 0.006434
v -0.334926270768734 0.766999494030352 0.0150050174974954
v -0.0620146110775433 0.60957021623548 -0.0518690134190518
v -0.05683 0.480106 -0.069403
v -0.0520393424783038 0.250303342478304 -0.00772765455750005
v -0.0554924064820571 0.0640813251683598 0.0565466859353656
v -0.0479977841949393 0.56471178094618 -0.0725531190375857
v -0.0509408025659217 0.639289176910389 0.0508804012372588
v -0.0472231099987604 0.541322692860856 0.0533077960754405
v -0.0528936645670954 0.84661381677182 0.0221955267850896
v 0.0898308997002018 0.507615975463528 -0.0372405459839261
v -0.0441796386266573 0.0487248062356327 0.0492980792739123
v -0.0389123972968929 1.02374132822863 -0.00529245546070355
v -0.0541830441510133 0.350463275327947 -0.0328042214983658
v -0.0380697512399936 0.3797875980649 0.038694684838556
v -0.0484360662227009 0.0509374449523371 -0.0496667398116169
v -0.138391442241006 0.653001398927472 -0.0522534613660613
v 0.0788368145958377 0.600568292843899 -0.0379662805482372
v -0.0297538397839422 0.297641858197391 0.020221277347494
v -0.035978 1.022533 0.006496
v -0.034261 0.06631 -0.04905
v -0.0370675315810856 0.0538100920890328 -0.0547034575242253
v -0.0266516610623489 0.220633224527658 0.0065474365961243
v -0.0589128716205373 0.80752634568641 -0.0295266189638943
v -0.032585 0.05668 0.043648
v -0.0254128145477045 0.0545101194455178 0.0537292367565129
v -0.0403101092570316 0.716001034171814 -0.0422262752224409
v -0.0220482080651644 0.21083698847546 -0.00501366257441631
v -0.022406 0.895863 -0.004004
v -0.0274762712529105 0.59709136606675 -0.0728627340891345
v -0.0182862877921371 0.0492381570495595 0.0435910973516318
v -0.020275 0.557702 -0.066668
v -0.019842 1.053825 -0.001715
v -0.0210896547828333 0.0497078786358892 -0.0427446660234068
v -0.0158096148414216 0.0360879352484441 0.0440262436600459
v -0.015334 0.575797 -0.071298
v -0.009966 0.244422 0.00574
v 0.311935174213783 0.625261895248881 0.00553155809674688
v -0.0147808797142981 0.582238708072265 -0.0647561735176247
v -0.006573 0.206534 0.007334
v -0.0138860096937546 0.0318628251708948 -0.0487907994445243
v -0.00176656493630747 0.0372320929508245 -0.0518431944055804
v -0.00734290209571166 0.258371933609261 -0.00895061339381063
v -0.006573 1.046283 -0.005386
v -0.00273385244888212 1.04899114755112 0.00653157788700661
v 0.0152544508635542 0.225106155863684 0.00564117322456356
v 0.0201720733292193 1.06753468906996 -0.00524084625719087
v -0.0266360496536431 0.711856381671296 0.0427328464415225
v 0.0074651116804458 0.782618340321396 0.0284823254257527
v 0.000774339688674773 0.0385126152854618 -0.0424317905870992
v -0.000835332851990729 0.406679016271025 -0.0389850738489649
v 0.00641057866885663 0.870185318217465 0.00999201517150862
v 0.0174352500644978 0.421323621108469 0.0399270546556624
v 0.0180273629951013 0.175713637004899 0.00693745079597253
v 0.0109433952658375 0.0232050522192453 -0.041437846456292
v 0.00284577012478143 0.475055665932183 -0.0460680712172675
v 0.017178 1.056462 0.005244
v -0.0051607815463401 0.3187018154399 -0.0218968274698584
v 0.0141491138200176 0.181319609019954 -0.00595214602846627
v 0.0267621228340541 0.138524951681118 0.001344
v 0.0165947812421358 0.834565279654517 -0.0153118528983284
v 0.0280839308017905 1.08340017679804 0.00473974494119746
v 0.034142 0.276089 0.005348
v 0.035273 0.864196 -0.003776
v 0.0225279584966966 0.663774951010182 -0.0414500620094926
v 0.0400253015308294 1.01389260922612 -0.00408030134219125
v 0.0401618939669687 0.345217266085235 -0.0213704163146681
v 0.0670631426812891 0.866570668473703 -0.00370909434920568
v 0.00936075362036228 0.638773704035333 0.0455612859926703
v 0.047714 0.854017 0.004765
v 0.017038466744997 0.0232856137638855 -0.050173901251554
v 0.070334 0.302101 0.005151
v 0.0186523744632902 0.574697570851958 0.0466851960817519
v 0.055631 0.139241 -0.00438
v 0.0640163733985623 0.115152043586242 0.00653503983294399
v 0.0626694398156907 0.11068785275564 -0.0038782716695639
v 0.0620627613144067 0.811825602442925 0.0126820972781526
v 0.083905 1.094915 0.005123
v 0.0949268826153518 1.099439 -0.00400708491523273
v 0.0795978060560569 0.720164739870022 -0.0267846481859097
v 0.0891368126592204 0.800436095317235 -0.00826007441750005
v 0.0955894965244424 1.11954019844461 0.00135045954629819
v 0.0944348035074892 0.0842659987176789 0.00245713217046821
v 0.099173 0.80482 0.004412
v 0.100140710218228 0.325122710218228 0.00498715854841218
v 0.0926964636106567 0.749035778324442 0.0193619496739371
v 0.106148191168958 0.424188777190395 0.0267752200564579
v 0.123909095418898 0.0822719045811022 -0.00535528622911925
v 0.128997243003349 0.85701587959401 -0.00324939101811674
v 0.104415653621676 0.505109226587444 0.0363510084677135
v 0.115946909473355 0.784654090526645 0.00433902459305023
v 0.111305484300922 1.0982653758658 0.00508282352801669
v 0.12462 0.345078 -0.003795
v 0.152076734035425 0.318226806498314 0.00448355341067649
v 0.131406 0.765801 0.004267
v 0.129144 1.114142 -0.003951
v 0.137633225316223 1.08548076006697 -0.0037931861661802
v 0.136786458973887 1.115273 0.00496816182789632
v 0.13157371493877 0.0615495172425108 -0.00174687356221265
v 0.140454 0.359781 0.004616
v 0.142439978890737 0.104265698189883 0.00518741878422442
v 0.149860350228894 0.0653935344473683 0.00661637965875099
v 0.147531564230724 1.13504901400401 0.000673743597305453
v 0.0908209016683208 0.191646570620418 0.00508254030560863
v 0.160074566501556 0.0618141725140661 -0.00493452035076693
v 0.149474304979931 0.784961465079709 0.00412757912311648
v 0.15394217743318 0.755336484874597 0.0041839449915739
v 0.164321248461627 0.757553706167052 -0.00305675832694728
v 0.165913355037283 0.7184126302085 -0.00309794207306162
v 0.154102807615548 0.822398918796007 0.00404813378295751
v 0.16209610301343 0.860561189894714 0.00346865479322584
v 0.33221778968977 0.55074133016067 0.00517415219723476
v 0.155122514865733 0.724685412742578 0.00512604520199155
v 0.163074 1.0419752700951 0.00404022068453511
v 0.164205 0.840446 -0.002975
v 0.135571100984361 0.456608101900663 -0.0257825763188123
v 0.172544336869679 0.645182714683243 -0.0161429240017258
v 0.163671 0.045949 0.001827
v 0.17099 0.813303248940647 -0.00296800331283991
v 0.160558640727806 0.684732878299601 -0.0125802283025153
v 0.174949 0.415764 0.004321
v 0.170040590789143 1.07742094227499 0.0042978997880367
v 0.16841730895609 0.419692407986053 -0.00862899281331111
v 0.167285044678256 0.560682418820277 -0.0267309456364322
v 0.176176279735415 0.436412069044142 0.00801614016570689
v 0.177023 0.487917 -0.01951
v 0.17970356418927 0.458540762888748 -0.00925144255509405
v 0.178188001905867 0.79102210092508 -0.000918
v 0.177776 0.432163 -0.003294
v 0.176645 0.684371 0.004057
v 0.185436618762042 0.0760043800736346 0.00470109823745858
v 0.185693 0.759737436683296 0.004077
v -0.425561446587341 0.561033490784888 -0.0296389631577922
v 0.176999426911923 0.37145110813234 -0.00322779056687683
v 0.184562 0.247815 0.004036
v 0.179968852711125 0.658265344287762 0.0114072699092636
v 0.190542933656495 0.699385292831403 0.00404962488341326
v 0.189068080529823 0.48068500573934 -0.0110309202733327
v 0.188787767694006 0.649971314055187 -2.88483691723396e-06
v 0.185871160237466 0.0433019198812671 -0.00457220338346765
v 0.188392132422433 0.477017257133664 0.00862866473008087
v 0.172769609855415 1.13372685934031 0.00567879321802019
v 0.191667 1.096963 -0.002049
v 0.191839344603231 1.13034800030703 -0.00378561089498303
v 0.198134 0.669668 0.004117
v 0.194910686389649 0.732183440831062 -0.00125512860572428
v 0.190505365497608 0.0433848793116866 0.00605648092941526
v 0.202742421437033 0.473691355456859 -0.00172789384740648
v 0.189866480720962 0.505530115474224 0.0209999724563399
v 0.199303886983345 0.637895256126261 0.00808443603388978
v -0.220985399886907 0.633205285826957 -0.0540298382926872
v 0.216582836771701 0.470383609233944 0.00554565942097354
v 0.215098 0.060073 0.004298
v 0.212818405516944 0.0616643147654978 -0.00286509931520093
v 0.209486213892819 0.633913137018798 -0.00606223788699547
v 0.223236278155337 0.491298592189396 0.0140396064540778
v 0.213789279298375 0.591507354096148 -0.0162010383910551
v 0.234539318017945 0.633947551349297 0.00769331428200774
v 0.218817579951745 0.495027391421225 -0.0141502329002042
v 0.238803576341758 0.458176 0.0071164733953002
v 0.226916693834705 0.464228623383755 -0.00491391516880259
v 0.228512649751419 0.0410033502485814 0.00434382168643813
v 0.220044601072009 0.540135290309607 -0.0178610897971008
v 0.226138106094752 0.0301975292676974 -0.0037074077736423
v 0.242099701454479 0.645449655012436 -0.00137131292649673
v 0.27014494121932 0.643574766963105 -0.00684086595915667
v 0.26177237725392 0.609802117166938 0.00991079418137107
v 0.265103171336017 0.478280939500112 -0.00850271641469689
v 0.261163574757062 0.432388669765844 0.00432684621143461
v 0.293286681445502 0.582459575979886 -0.00499466555309933
v 0.273290778713779 0.651887366736501 0.00731656044163536
v 0.272827833806413 0.432520839030066 -0.00585401997527983
v 0.273909 0.485885 0.006789
v 0.294699364940738 0.395033290264968 0.001344
v 0.301248275693168 0.700177283069296 -0.00145306977415744
v 0.30820498838232 0.660200144034279 -0.00420453506490408
v 0.31519 0.382966 0.005733
v 0.315710263047105 0.704248297159384 0.00578361336456467
v 0.326962423903389 0.406000628580111 0.00536203095009408
v 0.327369050845933 0.703902050845933 -0.00465369866177283
v 0.329327 0.380704 -0.00545
v 0.327096418576864 0.723905623910464 0.00256824118302423
v 0.356868468300664 0.36573526354493 0.00504034926389351
v 0.343795327204955 0.350138936761943 0.000213
v 0.368142394166037 0.756124079422842 0.00015623496794075
v 0.373858745286663 0.724013578266838 0.00449629526281951
v 0.389803306232732 0.747407653116366 0.00443774822626473
v 0.386031608719757 0.334723497239872 -0.00499765485574724
v 0.397439836589261 0.313747479811499 0.00318395061203167
v 0.411048752424612 0.774741171596938 0.00445142538011279
v 0.40544890577222 0.763909002691898 -0.00457930597292389
v 0.406022984777545 0.735565387952922 -0.00311827077253667
v 0.426336130274743 0.310272869725257 -0.00478021116817703
v 0.423198 0.763539 -0.003083
v 0.430979288151822 0.336507071405809 0.0041890763300734
v 0.420161041382897 0.756084571484569 0.00427794603731859
v 0.437289078838419 0.783166555070173 -0.00361397313386452
v 0.459562501301812 0.786996862428176 0.00478173586194604
v 0.454865 0.773718 -0.002969
v 0.47183 0.777111 -0.002899
v 0.479967410985442 0.761497410985442 0.00413020767773814
v 0.478309773355782 0.790968668965972 -0.00293395018441082
v 0.0648746200843704 0.546380261947594 0.0417137790609845
v 0.000995088942796714 0.589318046860021 -0.0472558858397591
v -0.123781488526645 0.0506122453005403 -0.05983459800519
v -0.0835605372772395 0.893995521923668 -0.00963056757953177
v -0.0724433189148415 0.424026362902295 -0.048219251780943
v -0.172684303609802 0.191143106810311 0.0501556685466543
v -0.0484593497298541 0.541353082620282 -0.0522398786013034
v -0.205096644709916 0.531922107115604 0.0555239838978824
v -0.0947982270143839 0.486269656006655 -0.0618157740378293
v -0.168699969719488 0.713412631982628 0.0470596129866958
v 0.419497625501607 0.775403151177366 -0.00418591824993977
v -0.215925318690027 0.755672637957992 0.0394394495919679
v 0.0258085504752308 0.505233956005634 0.045644135896183
v 0.415532288616275 0.735368670650429 0.00937284155966245
v 0.371794939577509 0.742277407499576 0.00581731478877243
v 0.377775079402485 0.742510219341027 -0.00366037742928076
v 0.415541000750206 0.751143718857834 -0.00309760676922235
v 0.38156320580757 0.73598891558675 0.00445969333896744
v 0.425164468584308 0.776481111105714 0.00528214686135549
v 0.431685782221567 0.772672574513039 -0.00465905854403832
v -0.361909989862017 0.604489154546899 -0.0424397173376013
v 0.396583104434381 0.755932217792882 -0.00453716771114636
v 0.0683561969415848 0.416489632294153 -0.0313866603250607
v -0.16913510355156 0.651360121547784 0.0533143568524449
v -0.167016840491276 0.197615235118649 -0.0380574969582739
v 0.113114656057461 0.145258770298664 -0.00399728877119297
v 0.398323497996734 0.744703471873034 -0.00325063737460527
v 0.055449541067122 0.216222833556068 0.0053084574312076
v -0.103679858157257 0.307102776175656 0.0248020452955671
v 0.153763052590363 0.434956862100371 -0.0161942060800263
v 0.0348165342356226 0.762753907994819 -0.0270063881558427
v -0.236696607280642 0.394781147997448 0.038826731630143
v 0.247325231725953 0.44915989839332 -0.00504837028192425
v 0.110795471852121 0.674936972063551 -0.0274847193111688
v -0.101748505654147 0.379148572712202 0.0423860146462373
v 0.41432345288611 0.763724001345949 -0.00383115298646194
v -0.0649587056050481 0.337807927356216 0.0311126609992736
v 0.124204516507919 0.40409487772913 -0.0178947684645442
v 0.0740554144352521 0.583207884546977 0.0401923079927698
v -0.0742421979269255 0.567520889954362 -0.0730311762460711
v -0.0570713386800337 0.781689887389736 0.0351678651370129
v -0.133955373383385 0.768607281310148 0.038513142550065
v -0.322823688440673 0.629727907676605 -0.0541130971438211
v -0.369097840571789 0.640754079593105 -0.037711339693494
v -0.270705679351555 0.714506076726701 -0.0407048946528068
v -0.0164057806769574 0.533576440818261 -0.0494052443438469
v -0.0263423977457325 0.480451131798704 0.0501501860642617
v 0.0687349185420193 0.463756932612596 0.038246350457102
v 0.0146773301586371 0.343518630850043 0.0256373189500863
v 0.151558617162013 0.447641661054139 0.0205771927168592
v -0.25024177890363 0.385296329259693 -0.0352897090283911
v -0.109631509075948 0.675190251079601 0.0508002424296271
v -0.433878970776969 0.518148242932276 -0.0292738085408071
v 0.154676445035253 0.397792751879955 -0.00944227103448261
v -0.0658836158473142 0.556395473861238 -0.0653391604223736
v -0.193703080813169 0.330080065675103 0.0341268384792748
v -0.0536663369759365 0.997557962085345 -0.00402572507989803
v 0.159496797812257 0.456246810976036 -0.0169045807750138
v 0.133507665655796 0.498245256048426 -0.0283784263805036
v 0.345990756393685 0.474153989866876 0.00492393566667569
v 0.13225538278143 0.429135910165 -0.0212287170508408
v 0.00615832947766421 0.567608335567952 -0.0471055857521834
v -0.107653033027718 0.930402084732548 -0.00408599738571103
v 0.273901064407759 0.527020307402204 -0.00570886676595424
v 0.149850650837319 0.421609591855615 -0.014524739890766
v -0.293035769247266 0.597275543871524 -0.0533135775510359
v -0.21655267970415 0.754483344109182 -0.0387698357369136
v -0.272890061508744 0.835378612828403 0.010477351878978
v -0.0634015363817486 0.561488725413935 -0.0531047656706168
v -0.362241178787084 0.717970379267898 -0.0203042311560901
v -0.117921836762728 0.553011456679454 0.0568771435458766
v -0.326642167584204 0.649416932869345 -0.0475340888142125
v 0.0321259802791589 0.230460166249371 -0.00441443012848282
v -0.0912867332776953 0.94688725476565 0.0056097343269855
v -0.3305836919116 0.733351067532957 0.0242345800874116
v -0.362919919777011 0.66410158968474 -0.0317839567622674
v 0.34005001483434 0.507994882506845 -0.00362110887137377
v -0.0232652000504259 0.852347128907501 -0.0169665212797295
v -0.26069806129215 0.804568952932917 0.0242256944808156
v -0.338069634587752 0.615237265685286 -0.0532996147121247
v 0.427008871356388 0.743572771150323 -0.00301754646865515
v -0.112073898932101 0.454578632289549 -0.0534411606994233
v -0.0637119596985113 0.294719065552158 -0.0197245843037825
v -0.0119876473298008 0.576296320884413 -0.048751624077498
v -0.388256511030016 0.554156781132434 0.039391988946356
v -0.423861605376003 0.594302554719995 -0.0266397173797145
v -0.159393517886317 0.715505753539432 -0.0461351777529877
v -0.303479686826644 0.643141030958144 -0.0517421430025953
v -0.257977827475855 0.729451453908434 0.04034327869223
v 0.0233547886910197 0.533627162812619 -0.0454182991626601
v -0.0771251314005066 0.961122678087076 0.00512024421092174
v 0.364623586713651 0.735642081345546 -0.0047071718144483
v -0.0951549808509508 0.52144483524857 -0.0267020788836447
v -0.103595647495719 0.111201457916361 0.0444289910670955
v -0.0025479637101436 0.551613111604951 -0.0480984451326159
v -0.264550119896897 0.759787565980476 -0.0322154152653344
v 0.126352859182466 0.71115897330532 0.0189020781271109
v 0.020684532326096 0.694857822619501 0.0397580262043437
v 0.109151183312071 0.475090654008265 -0.0330027889586202
v 0.129391329778741 0.613432287365 -0.0300951104236075
v -0.0599685628028216 0.971108147023721 -0.00407402449706111
v -0.00058749163081229 0.0381058252585279 0.0468441942449133
v -0.0413232825090376 0.0723770437718045 0.052297673432735
v -0.0413648900192586 1.0374824317274 0.00138791308057381
v 0.0623671123424975 1.10175926733187 -0.00340816952272203
v 0.294933809856328 0.581426826402072 0.00790430733197946
v -0.112775153363297 0.952764751744673 0.00649968189453276
v 0.00517282511315156 0.845421263858356 0.0157044779057329
v 0.173761032792014 0.43693197575396 -0.00870942737845731
v -0.150873137081695 0.53963086125594 -0.0895549451524561
v -0.314661658394697 0.609319645646797 -0.05731814903607
v -0.080400714946316 0.480077724449142 -0.101161397896817
v -0.12096529651239 0.125126751014269 -0.0447719797587013
v -0.278766801771845 0.641378831466068 -0.0528092993805151
v 0.111820877431551 0.556421516534912 0.0360004882552735
v -0.138829049567517 0.372121413817843 -0.0408156725952058
v -0.0893558432329527 0.545936246372752 -0.054807432761564
v 0.161349932185922 0.418227822842987 0.0120787023185644
v -0.302649 0.657604 0.044022
v -0.0268484804445003 0.570955721334137 -0.0816840069130816
v 0.0452253724485163 0.487456447508248 -0.0417972765174039
v -0.260548506277707 0.42712177498742 -0.0377076582835902
v -0.0860213953679252 0.123863964003801 -0.0481149223423421
v -0.38533502301383 0.463060489121141 -0.0318437168982687
v 0.186322666627472 0.403510827192777 -0.00318038300718246
v 0.132646302893942 1.05274537219999 0.0045416465860731
v -0.036632326775085 1.00290245566217 0.00516488787057519
v -0.0684729016751847 0.0795144697436578 0.0569667798583566
v -0.0884416437894488 0.379489327163071 -0.0406738198377926
v 0.0774926765914136 0.270840078439521 0.00504676471577621
v 0.0525010145637697 0.174524786589829 0.00547823432438088
v 0.439537848592857 0.772284890149576 0.00512888659134005
v 0.0873518726545137 0.645410193418675 0.0355939385944995
v 0.186632098641949 0.42567827658446 -0.005564985225699
v 0.182284206078924 0.456714663088903 0.00832240244789388
v -0.15650828991064 0.107374772155764 -0.052046028091
v -0.139987920908529 0.0693386304401359 -0.0609706022060988
v 0.403143907747751 0.761111539108227 0.0112205624051898
v -0.0594735016579747 0.0594398839511733 0.0499624567277812
v -0.285713594198379 0.421114539255806 0.0345823178681756
v 0.0312202298359559 0.715632100895618 -0.033752259930956
v 0.0817292760813945 0.453704208420966 -0.0347251427234081
v -0.0241857526693869 0.0413339927407035 0.0539592023229749
v -0.0727420086504009 1.00800496910185 0.00416632261944932
v 0.0446492305457943 0.772158691646275 0.0245020990562843
v -0.136288902007595 0.0545774796457956 0.056794732911783
v -0.21803895512671 0.797592721663331 0.0311592757144362
v -0.16824261140403 0.10185861140403 -0.046208459827724
v 0.021177560520087 0.797633270897189 -0.0223539466882428
v 0.0686045738441209 0.421055275084796 0.0328215419904611
v -0.209353267615838 0.850794040773736 -0.0165322936087624
v -0.125843368715143 0.0680941935655631 0.0531402551564414
v -0.0725547367328057 0.545520754033786 -0.0851296630133172
v 0.0937298334474418 0.376880915986944 -0.018525929801667
v -0.0363450028438471 0.926467330804076 0.00508276309977454
v 0.133144163709751 0.537843416711784 -0.0321917836332565
v 0.348857291238201 0.672202521424792 -0.00354393892667621
v 0.390504316925504 0.768797010700498 0.00214745326356201
v 0.0543018666507008 0.690470231936904 -0.0350787964617998
v -0.435875454460502 0.556318265511301 0.0295543534202688
v 0.188420420828436 0.263144924608843 -0.00294125115358441
v -0.0994887874533274 0.571964991855876 -0.0734777488595408
v -0.176039201675407 0.134809350967311 -0.0558359594224802
v 0.148496090826993 0.671792636798436 0.0201821737216841
v -0.0302684708661515 0.57613766456325 -0.0644563060431156
v -0.0883820133504719 0.970127977189698 -0.00480914155041806
v 0.18232834001339 0.226575374327128 0.00398427197171893
v -0.182293353123808 0.601779475941643 0.0564943168235606
v 0.0579986088027412 0.32941461667233 0.0154013009302058
v -0.303864558151285 0.35212425961951 0.0214007069557946
v 0.390208143929887 0.73039606242117 -0.00329270029191622
v 0.114044153356415 0.663572228502827 0.0294650503349967
v -0.165170917488075 0.337632532440329 -0.0343935541910578
v 0.143944920041967 0.657310729473917 -0.0224897981186383
v -0.0755122536694851 0.98639117399766 -0.00537944665710288
v 0.0801257733112842 0.550882756216345 -0.0388032944241988
v 0.157164690268343 0.432105920309516 0.0157402434834862
v 0.411332872850703 0.747754985444894 0.0142242761121968
v 0.0382446256879598 0.444688067066543 -0.0394164375388679
v -0.322126333462475 0.677264421016786 -0.0387691566659143
v -0.290177578966009 0.658500335276585 -0.0463374674119926
v -0.0336460410396705 0.881984151260939 0.0119647481172648
v -0.0493630813375096 1.01045162197582 0.00650947960631564
v -0.0721629435726649 0.0867535578230587 0.0442733280339161
v 0.292804357505899 0.625010292741457 -0.0048038087210146
v -0.270801611533053 0.600127273320587 -0.0570578782199771
v -0.135634636902674 0.141217782054811 -0.0531590175596953
v -0.106278809174359 0.0444188091743592 0.050746435900215
v -0.0124055694775999 0.791415006145594 -0.0282148183418768
v -0.104678831686631 0.0347946007694326 0.0547620826265628
v 0.0647131989533088 0.504683240405557 0.0411540510737144
v 0.192365843863843 0.446968225460125 -0.00627535992068646
v 0.406673249944795 0.753355294336462 0.00433365612820306
v 0.44722891198663 0.745920053447031 -0.00288578406846078
v -0.464678521910928 0.575725412993885 0.0214944828771724
v -0.386740716179543 0.414830957910614 0.0148404106010239
v 0.150300654245584 0.506839282198261 0.0300075759945697
v -0.0814645161866335 0.461000709742094 -0.0520859108387
v -0.0531521321623041 0.910036365765328 0.000559024592123977
v -0.0474007846241565 0.063261610995948 0.0443059170804906
v -0.222668632466037 0.629115787756191 0.0549937692500537
v -0.0552591615171911 0.535630329280249 -0.0717279033679392
v 0.161155516045503 0.236426888084592 0.00412634294032524
v 0.0435087054373667 0.848353392780397 -0.00956257287690717
v -0.124975855433086 0.0564536554215731 0.0614805442779115
v 0.302936181849404 0.523430046943408 0.00648382141490676
v -0.205011506101855 0.867521604431872 0.0118801377421774
v -0.150277000183876 0.572265793399251 -0.0560828994548357
v -0.0894874657946282 0.500306886609705 0.0716308848948041
v -0.152150922199028 0.510898429965195 -0.0366210737151693
v 0.0740560338353292 0.663899287655706 -0.0349552469772808
v 0.0491638671030986 0.567616579507275 -0.0423377714202633
v -0.211761883362355 0.893943177384202 0.000959870563285059
v -0.200341817862263 0.347121472156403 -0.035616907012717
v 0.00540728336288611 0.0287325502648295 0.0505708969975295
v 0.0188400453720803 0.621285359535011 -0.0443610429299097
v -0.0811286383074885 0.576820881202379 -0.0539112877384307
v -0.0508551334411663 0.467422787194639 -0.0507306609779767
v 0.00444574629168101 0.877595777468149 -0.00736494440870757
v -0.131544108566414 0.533264440223952 -0.0270598903544657
v 0.126251410857512 0.455821944362946 0.0286009450184033
v -0.113051434407821 0.516875547000158 0.043261367852073
v 0.0197367808877634 0.284829991992594 -0.0110669088376107
v -0.119363053373529 0.482659168389524 -0.101008892438937
v -0.154741373425113 0.50360012453167 -0.0694435211024071
v -0.246475266808202 0.836560089192887 0.013266379716264
v 0.0934091350233842 1.07170873564163 0.00503150266044606
v 0.0534241322109839 0.636616170388979 -0.0395692476982515
v 0.161594153506169 0.636094671823935 0.0222917208339818
v 0.0263098174547745 0.821703500676014 0.0173551944426725
v -0.0241283161925211 0.606698239616393 0.0502327175913627
v 0.00085967026330117 0.922689393615291 0.00501972965930483
v 0.328760536296257 0.443351318557617 0.00529612660718835
v -0.370894758329431 0.727831684031661 -0.00541441827111873
v 0.0443438148995008 0.39274643160415 0.0302114633973439
v -0.171519155303568 0.46674804364409 -0.0645856365755771
v 0.328070123205066 0.619794312622793 -0.00383828049701521
v -0.033636656436086 0.982218439038303 0.00515492570309786
v 0.0382525978848839 0.966799217874304 -0.00401994756008881
v -0.330265989729972 0.513214176826152 -0.0502065596970507
v -0.0239576310116415 0.565441151954807 0.0511484373990408
v 0.0658059328284921 1.02577665818939 -0.0039789593505881
v 0.0114604627378179 0.384011164928512 0.0335773980725639
v -0.103781448929966 0.113501390459468 -0.0561876636637033
v 0.15513398107788 0.398180869170797 0.0103214797675029
v 0.098583405005163 0.120305866474332 0.00544803325643967
v 0.268522016195421 0.610027417847079 -0.00801597356955472
v 0.0645171732865283 0.985896051255822 0.00487072026627277
v -0.297041970013878 0.377205947422927 -0.0247595446373613
v -0.101099398522444 0.143853070543343 -0.0493964231030998
v -0.0955690162132453 0.629105221905189 0.053784226287901
v 0.184006041955882 0.245104199061377 -0.00304495720990026
v -0.0589401547436549 1.02051745257634 0.00403930782113586
v -0.0113827031094973 1.00861258732513 -0.00413062138960059
v -0.0242844625884408 0.507829426306067 -0.0492868192451822
v 0.052099612937833 1.05239420880459 -0.00408362608443345
v -0.236843100913184 0.595973307215966 -0.0569930087665948
v 0.105280508601309 0.432000534127791 -0.0276976186468148
v -0.0200548304973701 0.820298874255534 0.0246550305200438
v 0.0768102101372356 0.149035938427124 0.00538920278365293
v 0.00617120944099802 0.16192649202452 0.00238371845427282
v 0.366020001434076 0.441467478719621 0.00482196876956174
v -0.0639120797353644 0.531960262075481 0.0728359224547013
v 0.332063503043836 0.648930053976977 0.00095534764609048
v -0.278711677942143 0.493365218247595 0.0506928200721317
v 0.160193103516541 0.344332874909175 -0.00348089829123587
v 0.122675216696693 0.311512363140268 -0.00379955810102899
v 0.13651182030301 0.373517587918174 -0.00917266274920761
v -0.21058518787206 0.552147406908557 -0.0536327530477048
v 0.0912401678169891 0.836928105120832 -0.00357251407000128
v -0.074479054385937 0.878800663955754 0.0152758196714124
v 0.0559887520864073 0.19053534196088 -0.00505522250619583
v 0.30748915919229 0.49224776408854 -0.00562301047099465
v 0.365690239793232 0.375471869524777 -0.00355769515289276
v 0.134658402974694 0.711554519693477 -0.0154187409519098
v 0.053973162642185 0.818093256802957 -0.0120389519558607
v -0.178296307350099 0.528861038514924 -0.0715110090926552
v -0.0219344862124059 0.430828355632013 0.0455916037203979
v 0.0563750096032348 1.0750888439553 0.00513455499545047
v 0.129614742907007 0.750354399862442 -0.00859874884923703
v 0.14707735282099 0.788883287449778 -0.00311929816844445
v 0.0808450053741955 0.163053060299943 -0.00422362270146748
v -0.0228605982227765 0.852532570460125 0.017968303991652
v 0.273141409525599 0.671145016587712 -0.00268070301790797
v 0.0127100022485861 0.465292527735762 0.045147387400197
v -0.0949905488450366 0.092325738531735 0.0547455363182592
v 0.075748542226212 0.774264211796208 -0.0168547317673298
v 0.317574237611045 0.485963003896705 0.00551110178073479
v 0.391613446809792 0.352635567703131 0.00466204719923371
v -0.349327780125582 0.687166986093684 -0.0311770970715668
v -0.274396257166924 0.363693628552294 0.0298330805161017
v -0.0494435221618422 0.579995858588206 -0.0518582359384019
v -0.160430373557293 0.0996880168506673 0.0605982546360107
v -0.120278648563168 0.769359362969637 -0.0382803228494383
v -0.075328579022038 0.511484798713984 -0.0625243531041689
v -0.0611318404252329 0.863914271725107 -0.0174095144923207
v 0.0358990272642596 0.594988889319426 -0.0433505385864417
v 0.320804981063284 0.66570642130234 0.00516458296003221
v 0.0637046431556923 1.08147691030377 -0.0040697512679288
v 0.0558256722419756 0.379162808322147 -0.0257747106753613
v 0.251340916762506 0.574219603592378 -0.0115771461251321
v -0.108165042921596 0.687605706890909 -0.0486331709395092
v -0.14970502673334 0.609840059755078 -0.0549486436535257
v -0.224752571893323 0.198443481118943 0.0331817954103548
v -0.0647746946892848 0.475397878731105 0.0525993755420822
v 0.0871601156110432 0.334010350586737 -0.0104510354795761
v -0.104469619859392 0.451829878399969 -0.0856807408383652
v 0.0421118208658518 0.894424812267689 0.00612090449783217
v -0.114538456424982 0.511497574356354 -0.0826030641130423
v -0.303912275993578 0.351778743047932 -0.0197523271210843
v 0.167001969129588 0.602245467404205 -0.0238640789352458
v -0.139388 0.212399 -0.037603
v -0.143468789699556 0.473370320761255 -0.0243207615287206
v -0.123072213708344 0.506479621373893 -0.0559119261760208
v 0.310537655912877 0.415368841413978 -0.00429474427543824
v 0.0261028200589814 0.311009226744569 0.0168617278331417
v -0.182316407635689 0.63472445144646 -0.0538150260123558
v -0.193597663871292 0.500887001479705 -0.0671344216832672
v -0.397648442277704 0.685456790532685 0.0147088513287051
v 0.093468914021313 0.296397904363727 -0.00399741891418085
v 0.126946025969775 0.815058855559039 -0.00321960567766611
v -0.030836311676808 0.594037953436291 -0.0501132005040436
v 0.0914898669403825 0.392494597802761 0.023136619869227
v 0.106841926266678 0.779752624196089 -0.00835815963466193
v -0.335978655401841 0.72693415863188 -0.0262724958108939
v 0.295965952361563 0.457476159879994 -0.00484854924057769
v 0.298806715691317 0.550396041839998 0.00610787373678378
v 0.07045046277195 0.23886503615086 -0.00410269626118686
v 0.060578 1.102333 0.004218
v -0.362735172398455 0.392386640446025 0.013292117577209
v -0.260881571167378 0.628104295962242 -0.0536011513662697
v 0.0155569259335774 1.0272143142957 0.00518448424349474
v -0.0805887504902046 0.544123030059872 0.0554595963285966
v 0.0549582512330352 0.304313611121976 -0.00947830879335522
v -0.107013090900515 0.540311962091002 0.0734922508718992
v 0.108941708938161 0.358997840639536 0.0125015351483452
v 0.123264938113527 0.387908734897722 0.0155284850701574
v 0.396435305599956 0.739178235676747 0.019636436289663
v 0.113515735912999 0.109804189175184 -0.0041209819978265
v -0.17969644516546 0.519311534834333 0.0713847893821255
v -0.150927920778514 0.279466560974701 -0.0162741458095685
v 0.0849573687500745 0.132147998669076 -0.0042672434078344
v -0.010569 0.184989 0.00201
v -0.355818907343382 0.536796894703435 -0.046002813217046
v 0.309787354711097 0.532080070148371 -0.00448031597275765
v 0.332188998511168 0.583844750167185 -0.00379192736223443
v -0.0136991058155845 0.522092457715126 0.0501254927229565
v -0.0702157856161343 0.509216464189753 0.0546523326848448
v -0.0274326353079711 0.634435298942359 -0.0482316413043441
v 0.137711066858706 0.423311064387194 0.0194427666427721
v -0.199200429382422 0.165067593418079 0.0562035528072051
v -0.0222142999306735 0.562634951123268 -0.0498749510540061
v -0.326147937944616 0.406355734595277 -0.0263316419359455
v 0.294500520880442 0.678067831947943 0.00655008690310001
v -0.117894086104674 0.578333295924771 -0.0553944571618151
v -0.238319464430798 0.549320218580071 0.059216129695041
v 0.240086922016559 0.618626432887288 -0.0108283493544968
v 0.176595378102728 1.0708091665726 -0.00282504524631494
v 0.047289870189984 1.04284016084652 0.00508998510776068
v -0.110645177121573 0.97331540356448 0.000213
v 0.352421385030005 0.408998741273436 -0.0035716585468973
v -0.170153572376743 0.205929013488189 0.0376478706858531
v 0.299813804838166 0.43339289283177 0.0058396828473677
v 0.352765191934673 0.706226868744986 0.00467588970948101
v -0.0435013660632347 0.450202588814768 0.04960119896587
v -0.135232730140693 0.494019625644529 0.0568923734390186
v 0.004607 1.071443 0.001344
v -0.370082452608893 0.392835459277916 -0.00541017408972415
v -0.0565338796440062 0.0855689884029476 -0.0523912261206655
v 0.189555924880485 0.617502458426559 -0.0166244880459478
v -0.214289552288387 0.196089118032865 -0.0313486119705883
v 0.149094343753268 1.06110366545767 -0.00338922008920908
v 0.0949260471968751 0.101076952803125 -0.00562768247050545
v 0.319759531149806 0.371584566503272 -0.00144429469769392
v 0.163920573458359 1.10467918724461 -0.00368819731027034
v 0.218306281540965 0.607841515220592 0.0143199434036232
v 0.0242449022043996 1.04141814026803 -0.00416075070616522
v -0.0968093116565465 0.58421596471146 0.0556269596003454
v 0.0810287958534066 0.783488751930043 0.0147168203940056
v -0.218314 0.504843 0.053901
v 0.370726196002979 0.331956188851743 0.00412283504377027
v -0.184384212180009 0.554943136326388 -0.0559826873620873
v -0.158939237239233 0.541708645801349 -0.0564045879301913
v -0.106473244561908 0.610372542733447 -0.0540239165245294
v 0.162398337720932 0.263039569689544 -0.00334004818022147
v -0.151371078071622 0.543964760806581 0.0738001596746011
v -0.132795576459927 0.182540952896023 0.03866921421071
v -0.359183795214847 0.735625528733073 0.0143808576946111
v -0.0102312688372445 0.609398809185944 -0.0477991145757254
v -0.0936671217814748 0.466684602657772 -0.0254447224787962
v -0.220625110693105 0.250846897195599 0.0222017994839162
v -0.326110576210741 0.781342750641171 -0.0107144481469877
v 0.0360859232805487 0.19796337817082 0.0061236067311734
v -0.141997385341264 0.0728450747857613 0.0493098093953716
v 0.0534563886450214 0.248396725695626 0.00525704943394922
v -0.296094371999525 0.680929274185042 -0.0426565151073344
v -0.149057842114644 0.281446190442135 0.0228050821908444
v -0.0448941238300313 0.505993121198984 0.0527095390010689
v -0.14903419017703 0.404763892804113 -0.048123574568111
v 0.123740732331053 0.338671809225707 0.00478604652773687
v -0.121555274529336 0.427304384316812 0.0516763308796517
v 0.118453647304104 0.0841504062986576 0.00689736820534768
v 0.0395717727178225 1.08942961020511 -0.00351355648354105
v 0.121560530377583 1.12729460622431 0.00101210157180182
v -0.25209779699758 0.265015936685162 0.0199701986847459
v -0.162964393047452 0.235082622562201 0.0318285293309943
v -0.25350079817154 0.295846167769745 0.0328217298642057
v -0.0654300523271316 1.00718237840573 -0.00493135621208214
v -0.141733366203877 0.184509822190357 -0.0380329364688396
v 0.349898200542005 0.737215621622451 0.00513345435276418
v -0.194131385694536 0.493182645137237 0.0669813891732659
v -0.446775239207476 0.486300140609505 0.0231734603221392
v -0.0569316697781355 0.587265867121347 0.053444221873675
v -0.181682696609707 0.254071664798908 -0.0276802766211524
v -0.160385 0.238240834116912 -0.0304973331292613
v -0.178120876412861 0.147615773501745 -0.0449565485187439
v -0.151803133373356 0.0895417005571355 -0.0470790670118205
v -0.441099710897633 0.621748108693006 -0.0151792616734492
v -0.0440326669885671 0.0568234405268024 -0.043694440283992
v -0.0822032096279013 0.102813315868121 -0.0429829919568676
v -0.43283658254071 0.45873704885125 0.00813
v -0.167751287668522 0.563147317602252 0.0572172128579176
v -0.0787923227495087 0.0806695951981021 -0.0556592327878354
v -0.169870367081814 0.18864162929321 -0.0505948477023074
v -0.200106291678634 0.18183303541803 -0.0523202166489195
v 0.0514768615799142 0.267717115064633 -0.00423574238845699
v 0.119355400968441 0.607224083590099 0.0334045591469572
v 0.0682630170514019 0.361191340368175 0.0206931382859784
v 0.0156920352945576 0.986809619117228 0.00507580182147935
v -0.0754061681423724 0.653728174550834 -0.0502516707473985
v 0.158263487092112 0.473800167537929 0.0238666945845934
f 1 2 3
f 1 4 2
f 1 3 6
f 1 9 4
f 1 6 9
f 2 11 3
f 2 4 11
f 3 5 6
f 3 8 5
f 3 10 8
f 3 11 10
f 4 9 692
f 4 13 11
f 4 692 13
f 5 7 6
f 5 12 7
f 5 8 12
f 6 7 9
f 7 16 9
f 7 12 909
f 7 909 16
f 8 10 550
f 8 15 12
f 8 550 15
f 9 16 657
f 9 657 692
f 10 11 428
f 10 428 550
f 11 13 915
f 11 583 428
f 11 915 583
f 12 15 918
f 12 918 909
f 13 14 18
f 13 692 14
f 13 18 915
f 14 26 18
f 14 30 26
f 14 582 30
f 14 657 582
f 14 692 657
f 15 621 20
f 15 20 918
f 15 550 29
f 15 29 621
f 16 17 219
f 16 909 17
f 16 219 582
f 16 582 657
f 17 35 219
f 17 693 35
f 17 918 693
f 17 909 918
f 18 21 19
f 18 19 915
f 18 816 21
f 18 26 27
f 18 27 816
f 19 21 22
f 19 22 541
f 19 541 23
f 19 23 915
f 20 33 24
f 20 24 693
f 20 621 33
f 20 693 918
f 21 567 22
f 21 25 731
f 21 816 25
f 21 731 567
f 22 573 541
f 22 567 787
f 22 787 573
f 23 518 31
f 23 31 583
f 23 541 518
f 23 583 915
f 24 33 28
f 24 28 865
f 24 865 693
f 25 27 42
f 25 816 27
f 25 42 572
f 25 572 885
f 25 885 731
f 26 32 27
f 26 30 32
f 27 32 42
f 28 33 850
f 28 43 41
f 28 41 865
f 28 850 43
f 29 428 31
f 29 31 841
f 29 44 621
f 29 737 44
f 29 550 428
f 29 841 737
f 30 34 32
f 30 36 34
f 30 582 36
f 31 45 52
f 31 518 45
f 31 52 841
f 31 428 583
f 32 34 46
f 32 46 42
f 33 44 59
f 33 621 44
f 33 59 850
f 34 36 54
f 34 55 46
f 34 54 55
f 35 37 56
f 35 827 37
f 35 56 637
f 35 62 219
f 35 637 62
f 35 693 827
f 36 53 61
f 36 219 53
f 36 61 54
f 36 582 219
f 37 41 48
f 37 827 41
f 37 48 667
f 37 667 56
f 38 541 39
f 38 39 569
f 38 518 541
f 38 577 518
f 38 569 540
f 38 540 577
f 39 541 573
f 39 677 569
f 39 573 787
f 39 787 677
f 40 57 822
f 40 889 57
f 40 885 297
f 40 297 889
f 40 567 731
f 40 822 567
f 40 731 885
f 41 43 48
f 41 827 865
f 42 46 47
f 42 47 572
f 43 807 48
f 43 746 807
f 43 850 746
f 44 82 59
f 44 64 82
f 44 737 64
f 45 65 52
f 45 563 65
f 45 518 577
f 45 608 563
f 45 577 608
f 46 616 47
f 46 55 71
f 46 71 616
f 47 50 572
f 47 586 50
f 47 92 586
f 47 616 92
f 48 72 68
f 48 68 667
f 48 74 72
f 48 807 74
f 49 57 542
f 49 822 57
f 49 542 893
f 49 677 787
f 49 893 677
f 49 787 822
f 50 51 297
f 50 576 51
f 50 297 572
f 50 509 576
f 50 586 509
f 51 70 60
f 51 60 889
f 51 565 70
f 51 889 297
f 51 576 565
f 52 78 64
f 52 64 737
f 52 65 78
f 52 737 841
f 53 69 61
f 53 219 62
f 53 62 762
f 53 93 69
f 53 762 93
f 54 67 55
f 54 61 69
f 54 69 67
f 55 67 77
f 55 77 71
f 56 788 637
f 56 667 788
f 57 60 81
f 57 889 60
f 57 81 593
f 57 593 542
f 58 585 569
f 58 569 677
f 58 678 585
f 58 677 893
f 58 893 678
f 59 82 619
f 59 619 548
f 59 548 746
f 59 746 850
f 60 70 81
f 62 637 85
f 62 85 762
f 63 540 585
f 63 608 540
f 63 563 608
f 63 683 563
f 63 585 611
f 63 611 828
f 63 828 683
f 64 78 96
f 64 96 82
f 65 683 78
f 65 563 683
f 66 141 446
f 66 542 141
f 66 446 828
f 66 893 542
f 66 611 678
f 66 828 611
f 66 678 893
f 67 69 77
f 68 72 76
f 68 75 73
f 68 73 788
f 68 79 75
f 68 76 89
f 68 89 79
f 68 788 667
f 69 117 77
f 69 93 853
f 69 853 117
f 70 99 81
f 70 105 99
f 70 565 105
f 71 77 698
f 71 92 616
f 71 698 92
f 72 74 80
f 72 80 76
f 73 75 904
f 73 108 91
f 73 91 788
f 73 904 108
f 74 87 80
f 74 113 87
f 74 548 113
f 74 746 548
f 74 807 746
f 75 79 97
f 75 88 84
f 75 84 904
f 75 902 88
f 75 97 902
f 76 80 86
f 76 86 89
f 77 117 698
f 78 766 96
f 78 683 754
f 78 754 766
f 79 89 114
f 79 114 97
f 80 101 86
f 80 87 90
f 80 90 101
f 81 99 139
f 81 139 564
f 81 564 593
f 82 96 109
f 82 109 145
f 82 145 619
f 83 180 194
f 83 924 180
f 83 194 873
f 83 445 726
f 83 873 445
f 83 726 924
f 84 88 106
f 84 106 112
f 84 112 108
f 84 108 904
f 85 95 93
f 85 93 762
f 85 111 95
f 85 98 111
f 85 637 98
f 86 116 89
f 86 101 125
f 86 118 116
f 86 125 118
f 87 140 90
f 87 113 140
f 88 100 94
f 88 94 106
f 88 902 100
f 89 116 114
f 90 103 101
f 90 150 103
f 90 140 150
f 91 108 553
f 91 163 529
f 91 553 163
f 91 529 788
f 92 507 509
f 92 521 507
f 92 509 586
f 92 698 521
f 93 95 119
f 93 119 127
f 93 127 505
f 93 505 853
f 94 100 801
f 94 133 106
f 94 121 122
f 94 801 121
f 94 122 133
f 95 111 137
f 95 137 119
f 96 135 109
f 96 815 135
f 96 158 142
f 96 142 815
f 96 766 158
f 97 888 100
f 97 100 902
f 97 114 115
f 97 115 888
f 98 136 111
f 98 529 136
f 98 637 529
f 99 105 144
f 99 648 139
f 99 144 648
f 100 132 801
f 100 888 132
f 101 103 107
f 101 107 125
f 102 735 751
f 102 926 735
f 102 751 926
f 103 120 107
f 103 134 120
f 103 150 134
f 104 704 105
f 104 105 723
f 104 175 199
f 104 644 175
f 104 199 704
f 104 576 644
f 104 723 576
f 105 710 144
f 105 565 723
f 105 704 710
f 106 149 112
f 106 133 149
f 107 120 129
f 107 868 125
f 107 129 143
f 107 143 868
f 108 112 151
f 108 151 178
f 108 178 553
f 109 135 145
f 110 182 211
f 110 253 182
f 110 189 837
f 110 863 189
f 110 211 863
f 110 837 253
f 110 837 505
f 110 505 877
f 110 908 837
f 110 877 908
f 111 136 137
f 112 149 172
f 112 172 151
f 113 160 140
f 113 711 160
f 113 548 711
f 114 138 115
f 114 116 124
f 114 124 138
f 115 138 131
f 115 131 888
f 116 118 128
f 116 126 124
f 116 128 126
f 117 853 505
f 117 505 919
f 117 665 698
f 117 919 665
f 118 125 130
f 118 130 128
f 119 505 127
f 119 137 908
f 119 837 505
f 119 908 837
f 120 147 129
f 120 134 922
f 120 170 147
f 120 922 170
f 121 154 122
f 121 132 146
f 121 801 132
f 121 146 154
f 122 848 133
f 122 154 155
f 122 155 848
f 123 754 446
f 123 446 814
f 123 800 705
f 123 705 879
f 123 766 754
f 123 879 766
f 123 814 800
f 124 126 173
f 124 166 138
f 124 173 166
f 125 150 130
f 125 148 150
f 125 868 148
f 126 128 173
f 128 130 173
f 129 913 143
f 129 147 153
f 129 153 913
f 130 150 169
f 130 169 911
f 130 911 173
f 131 138 177
f 131 176 149
f 131 149 888
f 131 177 176
f 132 159 146
f 132 149 159
f 132 888 149
f 133 159 149
f 133 161 159
f 133 848 161
f 134 150 148
f 134 148 165
f 134 165 922
f 135 733 145
f 135 815 733
f 136 157 137
f 136 192 157
f 136 163 206
f 136 529 163
f 136 186 192
f 136 206 186
f 137 157 908
f 138 166 177
f 139 164 258
f 139 648 164
f 139 258 791
f 139 791 564
f 140 167 150
f 140 160 179
f 140 205 167
f 140 179 190
f 140 190 205
f 141 584 312
f 141 312 814
f 141 814 446
f 141 542 564
f 141 564 584
f 142 158 184
f 142 184 774
f 142 774 815
f 143 165 148
f 143 148 868
f 143 913 165
f 144 156 164
f 144 710 156
f 144 164 648
f 145 204 181
f 145 181 548
f 145 733 204
f 145 548 619
f 146 185 154
f 146 159 185
f 147 171 153
f 147 170 660
f 147 660 171
f 149 188 172
f 149 176 859
f 149 503 188
f 149 859 503
f 150 167 162
f 150 162 169
f 151 172 178
f 152 381 212
f 152 212 595
f 152 364 282
f 152 282 630
f 152 595 364
f 152 594 381
f 152 669 594
f 152 630 669
f 153 171 168
f 153 168 195
f 153 195 913
f 154 174 155
f 154 183 174
f 154 185 183
f 155 187 161
f 155 161 848
f 155 174 790
f 155 790 187
f 156 221 164
f 156 199 214
f 156 704 199
f 156 214 233
f 156 217 221
f 156 233 217
f 156 710 704
f 157 192 182
f 157 182 908
f 158 880 184
f 158 707 210
f 158 210 722
f 158 880 707
f 158 722 880
f 158 766 879
f 158 879 880
f 159 161 185
f 160 670 179
f 160 711 670
f 161 187 185
f 162 167 921
f 162 522 169
f 162 921 522
f 163 196 206
f 163 208 196
f 163 553 208
f 164 221 258
f 165 913 170
f 165 170 922
f 166 173 838
f 166 256 177
f 166 838 256
f 167 205 223
f 167 223 921
f 168 171 193
f 168 193 645
f 168 645 195
f 169 522 912
f 169 912 911
f 170 913 660
f 171 191 633
f 171 660 191
f 171 200 193
f 171 633 200
f 172 197 178
f 172 188 197
f 173 190 179
f 173 179 838
f 173 911 190
f 174 183 207
f 174 207 790
f 175 280 199
f 175 539 280
f 175 509 539
f 175 644 509
f 176 177 198
f 176 198 903
f 176 903 859
f 177 178 198
f 177 256 178
f 178 197 198
f 178 208 553
f 178 894 208
f 178 256 894
f 179 670 261
f 179 261 838
f 180 444 194
f 180 612 385
f 180 385 694
f 180 694 444
f 180 924 612
f 181 204 896
f 181 711 548
f 181 613 670
f 181 896 613
f 181 670 711
f 182 192 237
f 182 863 211
f 182 237 863
f 182 253 837
f 182 837 908
f 183 185 187
f 183 187 235
f 183 891 207
f 183 235 891
f 184 240 607
f 184 880 240
f 184 607 880
f 184 880 774
f 186 224 192
f 186 206 213
f 186 213 224
f 187 790 235
f 188 222 197
f 188 228 222
f 188 503 228
f 189 253 837
f 189 863 253
f 189 883 568
f 189 568 919
f 189 837 883
f 189 919 837
f 190 912 205
f 190 911 912
f 191 195 633
f 191 660 195
f 192 224 237
f 193 200 634
f 193 249 238
f 193 238 914
f 193 634 249
f 193 914 645
f 194 451 289
f 194 289 462
f 194 444 451
f 194 462 873
f 195 645 633
f 195 660 913
f 196 532 206
f 196 208 532
f 197 222 198
f 198 222 903
f 199 245 214
f 199 280 245
f 200 633 231
f 200 231 634
f 201 226 242
f 201 921 226
f 201 242 251
f 201 251 906
f 201 906 522
f 201 522 921
f 202 276 568
f 202 832 276
f 202 568 832
f 203 232 204
f 203 204 733
f 203 254 232
f 203 733 254
f 204 232 215
f 204 215 896
f 205 809 223
f 205 912 809
f 206 898 213
f 206 532 898
f 207 643 225
f 207 225 790
f 207 247 643
f 207 891 247
f 208 526 532
f 208 894 526
f 209 579 210
f 209 210 810
f 209 810 579
f 210 579 811
f 210 707 811
f 210 811 722
f 210 811 810
f 211 237 213
f 211 213 260
f 211 863 237
f 211 260 863
f 212 344 343
f 212 343 595
f 212 642 344
f 212 381 642
f 213 898 224
f 213 237 260
f 214 243 233
f 214 245 243
f 215 232 241
f 215 241 255
f 215 255 896
f 216 218 859
f 216 884 218
f 216 222 234
f 216 903 222
f 216 234 884
f 216 859 903
f 217 229 221
f 217 560 229
f 217 233 270
f 217 270 560
f 218 246 230
f 218 230 503
f 218 262 246
f 218 884 262
f 218 503 859
f 220 557 759
f 220 770 557
f 220 759 858
f 220 823 770
f 220 812 823
f 220 858 812
f 221 229 258
f 222 228 234
f 223 248 226
f 223 226 921
f 223 251 248
f 223 809 251
f 224 269 237
f 224 898 269
f 225 649 235
f 225 235 790
f 225 643 702
f 225 702 649
f 226 684 242
f 226 248 684
f 227 607 240
f 227 240 659
f 227 806 607
f 227 792 609
f 227 609 806
f 227 659 650
f 227 650 792
f 228 230 234
f 228 503 230
f 229 501 258
f 229 272 501
f 229 560 272
f 230 257 234
f 230 246 265
f 230 265 257
f 231 238 250
f 231 914 238
f 231 250 634
f 231 633 914
f 232 252 241
f 232 254 252
f 233 243 604
f 233 857 270
f 233 604 857
f 234 257 262
f 234 262 884
f 235 649 891
f 236 549 521
f 236 521 665
f 236 748 549
f 236 568 875
f 236 919 568
f 236 665 919
f 236 875 748
f 237 269 260
f 238 249 268
f 238 268 250
f 239 610 242
f 239 242 684
f 239 684 248
f 239 248 747
f 239 267 610
f 239 741 267
f 239 747 741
f 240 614 659
f 240 614 717
f 240 811 614
f 240 852 614
f 240 717 705
f 240 705 852
f 240 880 811
f 241 252 579
f 241 579 255
f 242 264 251
f 242 610 264
f 243 245 272
f 243 272 571
f 243 571 604
f 244 643 247
f 244 247 685
f 244 687 274
f 244 274 702
f 244 702 643
f 244 685 687
f 245 768 272
f 245 280 768
f 246 262 273
f 246 591 265
f 246 273 591
f 247 649 266
f 247 266 685
f 247 891 649
f 248 251 747
f 249 275 268
f 249 500 275
f 249 634 500
f 250 268 500
f 250 500 634
f 251 264 747
f 251 809 906
f 252 254 579
f 253 706 832
f 253 863 706
f 253 832 883
f 253 883 837
f 254 579 506
f 254 506 811
f 254 804 579
f 254 811 579
f 254 722 721
f 254 721 804
f 254 733 722
f 255 579 502
f 255 502 626
f 255 626 613
f 255 613 896
f 256 263 291
f 256 838 263
f 256 291 894
f 257 273 262
f 257 265 273
f 258 319 791
f 258 793 319
f 258 501 793
f 259 343 538
f 259 549 343
f 259 539 507
f 259 507 549
f 259 538 539
f 260 269 898
f 260 287 802
f 260 898 287
f 260 706 719
f 260 802 706
f 260 719 863
f 261 580 263
f 261 263 838
f 261 309 580
f 261 626 309
f 261 613 626
f 261 670 613
f 263 300 291
f 263 580 300
f 264 610 267
f 264 267 917
f 264 620 747
f 264 917 620
f 265 286 273
f 265 591 279
f 265 279 783
f 265 783 286
f 266 274 685
f 266 702 274
f 266 649 702
f 267 284 917
f 267 920 284
f 267 741 920
f 268 275 277
f 268 277 500
f 270 571 560
f 270 663 571
f 270 857 663
f 271 283 281
f 271 281 857
f 271 588 283
f 271 571 588
f 271 604 571
f 271 857 604
f 272 696 501
f 272 560 571
f 272 768 696
f 273 292 279
f 273 279 591
f 273 286 292
f 274 278 685
f 274 687 278
f 275 500 277
f 276 830 568
f 276 760 830
f 276 832 760
f 278 687 685
f 279 681 285
f 279 285 783
f 279 292 681
f 280 538 305
f 280 305 768
f 280 539 538
f 281 283 296
f 281 296 641
f 281 641 905
f 281 672 663
f 281 663 857
f 281 905 672
f 282 364 368
f 282 368 536
f 282 536 924
f 282 924 630
f 283 598 296
f 283 588 663
f 283 672 598
f 283 663 672
f 284 295 290
f 284 290 917
f 284 311 295
f 284 920 311
f 285 625 286
f 285 286 783
f 285 293 636
f 285 681 293
f 285 301 625
f 285 636 301
f 286 294 292
f 286 625 294
f 287 532 310
f 287 310 775
f 287 898 532
f 287 775 862
f 287 862 802
f 288 506 579
f 288 804 506
f 288 579 804
f 289 451 468
f 289 603 462
f 289 468 703
f 289 824 603
f 289 703 824
f 290 295 866
f 290 741 620
f 290 620 917
f 290 920 741
f 290 866 920
f 291 300 318
f 291 332 314
f 291 314 526
f 291 318 332
f 291 526 894
f 292 294 681
f 293 681 294
f 293 294 697
f 293 697 636
f 294 301 600
f 294 625 301
f 294 600 697
f 295 311 916
f 295 316 866
f 295 916 316
f 296 598 735
f 296 624 680
f 296 735 624
f 296 750 641
f 296 680 750
f 297 885 572
f 298 789 714
f 298 714 881
f 298 819 789
f 298 846 819
f 298 927 846
f 298 881 927
f 299 506 609
f 299 792 506
f 299 609 792
f 300 323 318
f 300 338 323
f 300 580 338
f 301 307 321
f 301 636 307
f 301 321 600
f 302 325 617
f 302 662 325
f 302 617 327
f 302 327 662
f 302 537 552
f 302 650 537
f 302 552 650
f 303 364 343
f 303 343 549
f 303 728 364
f 303 549 748
f 303 910 728
f 303 748 910
f 304 844 738
f 304 738 910
f 304 830 845
f 304 910 830
f 304 895 844
f 304 845 895
f 305 538 756
f 305 679 768
f 305 780 679
f 305 756 780
f 306 556 596
f 306 653 556
f 306 618 587
f 306 587 673
f 306 596 639
f 306 639 618
f 306 673 653
f 307 320 326
f 307 697 320
f 307 640 321
f 307 326 330
f 307 330 640
f 307 636 697
f 308 328 339
f 308 601 328
f 308 339 751
f 308 624 554
f 308 554 905
f 308 750 601
f 308 751 624
f 308 905 750
f 309 346 353
f 309 502 346
f 309 353 580
f 309 626 502
f 310 534 314
f 310 314 546
f 310 740 348
f 310 348 775
f 310 532 534
f 310 546 740
f 311 317 336
f 311 920 317
f 311 336 329
f 311 329 916
f 312 584 799
f 312 799 927
f 312 800 814
f 312 881 800
f 312 927 881
f 313 531 597
f 313 708 531
f 313 597 653
f 313 653 673
f 313 673 709
f 313 725 708
f 313 709 794
f 313 713 725
f 313 794 713
f 314 332 358
f 314 358 813
f 314 534 526
f 314 813 546
f 315 340 328
f 315 328 601
f 315 751 340
f 315 601 750
f 315 680 624
f 315 624 751
f 315 750 680
f 316 337 317
f 316 317 866
f 316 329 337
f 316 916 329
f 317 337 336
f 317 920 866
f 318 323 840
f 318 341 332
f 318 335 341
f 318 840 335
f 319 686 322
f 319 322 791
f 319 575 686
f 319 793 575
f 320 321 326
f 320 600 321
f 320 697 600
f 321 599 326
f 321 640 599
f 322 638 360
f 322 360 846
f 322 528 638
f 322 686 528
f 322 799 791
f 322 927 799
f 322 846 927
f 323 338 570
f 323 570 354
f 323 354 840
f 324 716 575
f 324 575 793
f 324 696 652
f 324 652 729
f 324 793 696
f 324 729 716
f 325 334 331
f 325 331 617
f 325 662 334
f 326 599 330
f 327 617 331
f 327 331 662
f 328 342 339
f 328 340 864
f 328 864 342
f 329 336 345
f 329 345 337
f 330 599 712
f 330 712 640
f 331 334 662
f 332 341 358
f 333 466 462
f 333 462 603
f 333 795 466
f 333 603 843
f 333 734 761
f 333 843 734
f 333 761 795
f 335 349 341
f 335 840 349
f 336 337 366
f 336 350 345
f 336 366 350
f 337 345 366
f 338 580 353
f 338 353 720
f 338 720 570
f 339 342 874
f 339 829 751
f 339 874 829
f 340 352 357
f 340 829 352
f 340 357 864
f 340 751 829
f 341 349 890
f 341 892 358
f 341 890 525
f 341 525 892
f 342 864 357
f 342 357 900
f 342 796 753
f 342 753 874
f 342 900 796
f 343 344 538
f 343 364 595
f 344 756 538
f 344 642 727
f 344 727 756
f 345 350 366
f 346 351 676
f 346 715 351
f 346 362 353
f 346 797 362
f 346 502 715
f 346 676 520
f 346 520 797
f 347 605 365
f 347 365 805
f 347 780 605
f 347 729 679
f 347 679 780
f 347 805 729
f 348 647 545
f 348 545 782
f 348 732 647
f 348 740 732
f 348 782 775
f 349 355 628
f 349 758 355
f 349 628 890
f 349 840 758
f 351 587 618
f 351 752 587
f 351 618 676
f 351 715 752
f 352 776 357
f 352 856 776
f 352 829 856
f 353 362 831
f 353 831 720
f 354 369 355
f 354 355 758
f 354 769 369
f 354 570 769
f 354 758 840
f 355 369 371
f 355 371 370
f 355 370 757
f 355 757 628
f 356 359 701
f 356 716 359
f 356 686 575
f 356 575 716
f 356 646 686
f 356 773 646
f 356 701 773
f 357 826 602
f 357 602 900
f 357 776 826
f 358 627 367
f 358 367 813
f 358 892 627
f 359 363 701
f 359 805 363
f 359 716 805
f 360 638 656
f 360 656 708
f 360 708 725
f 360 725 713
f 360 713 846
f 361 745 736
f 361 736 926
f 361 753 739
f 361 739 856
f 361 926 745
f 361 751 829
f 361 926 751
f 361 874 753
f 361 856 829
f 361 829 874
f 361 829 926
f 362 797 651
f 362 651 803
f 362 803 831
f 363 365 767
f 363 805 365
f 363 773 701
f 363 767 773
f 364 728 368
f 365 727 372
f 365 372 767
f 365 605 727
f 367 380 666
f 367 817 380
f 367 627 817
f 367 666 813
f 368 510 498
f 368 498 536
f 368 844 510
f 368 728 738
f 368 738 844
f 369 839 371
f 369 769 779
f 369 779 839
f 370 371 378
f 370 378 743
f 370 743 757
f 371 870 378
f 371 839 870
f 372 379 767
f 372 876 379
f 372 727 642
f 372 642 876
f 373 387 377
f 373 377 826
f 373 724 387
f 373 776 724
f 373 826 776
f 374 377 391
f 374 602 377
f 374 391 392
f 374 392 724
f 374 796 602
f 374 724 796
f 375 638 528
f 375 528 784
f 375 531 708
f 375 772 531
f 375 656 638
f 375 708 656
f 375 777 772
f 375 784 777
f 376 773 767
f 376 767 818
f 376 784 773
f 376 821 784
f 376 818 821
f 377 387 393
f 377 901 391
f 377 393 901
f 377 602 826
f 378 383 394
f 378 870 383
f 378 394 899
f 378 899 743
f 379 386 818
f 379 876 386
f 379 818 767
f 380 925 666
f 380 817 764
f 380 764 897
f 380 897 833
f 380 833 925
f 381 390 386
f 381 386 876
f 381 594 390
f 381 876 642
f 382 545 647
f 382 718 545
f 382 647 820
f 382 847 718
f 382 820 834
f 382 834 847
f 383 400 394
f 383 396 400
f 383 836 396
f 383 870 836
f 384 405 406
f 384 818 405
f 384 406 410
f 384 410 818
f 385 612 498
f 385 498 688
f 385 688 545
f 385 545 718
f 385 928 694
f 385 718 928
f 386 390 401
f 386 401 818
f 387 392 393
f 387 724 392
f 388 763 389
f 388 389 764
f 388 651 765
f 388 803 651
f 388 765 763
f 388 764 803
f 389 763 395
f 389 395 897
f 389 897 764
f 390 402 401
f 390 408 402
f 390 594 408
f 391 872 392
f 391 398 872
f 391 901 398
f 392 872 393
f 392 623 417
f 392 417 872
f 392 869 623
f 392 855 869
f 392 872 855
f 393 437 398
f 393 398 901
f 393 872 437
f 394 413 397
f 394 397 899
f 394 400 413
f 395 429 742
f 395 763 429
f 395 742 834
f 395 834 833
f 395 833 897
f 396 397 426
f 396 899 397
f 396 426 400
f 396 523 743
f 396 836 523
f 396 743 899
f 397 413 442
f 397 442 426
f 398 437 439
f 398 439 872
f 399 757 523
f 399 523 779
f 399 525 628
f 399 769 525
f 399 628 757
f 399 779 769
f 400 435 413
f 400 426 435
f 401 402 427
f 401 423 403
f 401 403 777
f 401 423 405
f 401 405 818
f 401 427 423
f 401 778 423
f 401 777 778
f 402 408 427
f 403 441 404
f 403 404 777
f 403 423 427
f 403 427 441
f 404 432 415
f 404 415 772
f 404 441 432
f 404 772 777
f 405 410 406
f 405 818 410
f 405 423 414
f 405 414 778
f 405 778 818
f 407 842 465
f 407 465 843
f 407 703 574
f 407 574 842
f 407 603 824
f 407 843 603
f 407 824 703
f 408 425 432
f 408 594 425
f 408 441 427
f 408 432 441
f 409 855 417
f 409 417 869
f 409 869 855
f 411 421 555
f 411 556 421
f 411 555 527
f 411 527 558
f 411 596 556
f 411 558 755
f 411 639 596
f 411 755 639
f 412 415 440
f 412 671 415
f 412 440 434
f 412 434 450
f 412 450 867
f 412 597 671
f 412 808 597
f 412 867 808
f 413 435 442
f 414 423 778
f 415 432 440
f 415 671 531
f 415 531 772
f 416 420 615
f 416 631 420
f 416 615 742
f 416 622 631
f 416 742 622
f 417 855 438
f 417 438 872
f 417 623 869
f 418 606 424
f 418 424 631
f 418 562 527
f 418 527 606
f 418 551 562
f 418 622 551
f 418 631 622
f 419 458 421
f 419 421 653
f 419 452 458
f 419 808 452
f 419 653 597
f 419 597 808
f 420 424 422
f 420 422 632
f 420 689 424
f 420 547 674
f 420 928 547
f 420 674 615
f 420 631 689
f 420 632 928
f 421 433 422
f 421 422 555
f 421 454 433
f 421 458 454
f 421 556 653
f 422 424 606
f 422 433 436
f 422 436 632
f 422 606 555
f 424 689 631
f 425 431 440
f 425 726 431
f 425 440 432
f 425 594 661
f 425 661 726
f 426 449 435
f 426 442 448
f 426 448 449
f 429 551 622
f 429 765 551
f 429 622 742
f 429 763 765
f 430 749 658
f 430 658 882
f 430 700 664
f 430 664 749
f 430 882 700
f 431 434 440
f 431 445 434
f 431 726 445
f 433 443 436
f 433 454 443
f 434 445 450
f 435 459 442
f 435 449 459
f 436 443 447
f 436 451 444
f 436 444 928
f 436 447 451
f 436 928 632
f 437 872 439
f 438 855 872
f 442 449 448
f 442 457 449
f 442 459 457
f 443 456 447
f 443 454 456
f 444 694 928
f 445 453 450
f 445 873 453
f 446 754 828
f 447 455 451
f 447 456 455
f 449 457 459
f 450 854 452
f 450 452 867
f 450 453 460
f 450 460 854
f 451 455 468
f 452 798 458
f 452 854 798
f 452 808 867
f 453 466 460
f 453 462 466
f 453 873 462
f 454 463 456
f 454 458 561
f 454 561 463
f 455 456 530
f 455 464 468
f 455 530 464
f 456 463 530
f 458 798 561
f 460 781 461
f 460 461 854
f 460 466 781
f 461 471 682
f 461 781 471
f 461 682 744
f 461 744 854
f 463 467 530
f 463 823 467
f 463 561 770
f 463 770 823
f 464 467 469
f 464 530 467
f 464 860 468
f 464 469 860
f 465 561 798
f 465 842 561
f 465 682 734
f 465 744 682
f 465 734 843
f 465 798 744
f 466 851 781
f 466 795 851
f 467 812 469
f 467 823 812
f 468 785 703
f 468 730 785
f 468 860 730
f 469 472 474
f 469 871 472
f 469 474 860
f 469 812 476
f 469 476 871
f 470 475 471
f 470 471 781
f 470 473 477
f 470 851 473
f 470 477 475
f 470 781 851
f 471 475 654
f 471 654 761
f 471 734 682
f 471 761 734
f 472 478 474
f 472 479 478
f 472 871 479
f 473 861 477
f 473 795 654
f 473 654 861
f 473 851 795
f 474 478 858
f 474 858 730
f 474 730 860
f 475 477 589
f 475 589 861
f 475 861 654
f 476 771 479
f 476 479 871
f 476 858 771
f 476 812 858
f 477 907 589
f 477 861 907
f 478 479 878
f 478 786 771
f 478 771 858
f 478 878 786
f 479 771 483
f 479 483 878
f 480 512 482
f 480 482 513
f 480 907 512
f 480 513 589
f 480 589 907
f 481 515 512
f 481 512 907
f 481 668 515
f 481 589 668
f 481 861 589
f 481 907 861
f 482 512 515
f 482 668 513
f 482 515 668
f 482 519 524
f 482 655 519
f 482 524 835
f 482 635 655
f 482 690 635
f 482 835 690
f 483 488 484
f 483 484 878
f 483 490 488
f 483 786 490
f 483 771 786
f 484 488 490
f 484 490 786
f 484 786 878
f 485 508 486
f 485 486 533
f 485 635 486
f 485 486 655
f 485 491 516
f 485 533 491
f 485 516 508
f 485 655 635
f 486 508 533
f 486 519 655
f 486 690 519
f 486 635 533
f 486 533 690
f 487 514 511
f 487 511 675
f 487 690 514
f 487 668 524
f 487 524 690
f 487 835 668
f 487 675 690
f 487 690 835
f 489 514 491
f 489 491 533
f 489 508 517
f 489 533 508
f 489 578 514
f 489 517 629
f 489 691 578
f 489 629 691
f 491 514 578
f 491 675 514
f 491 514 690
f 491 629 516
f 491 533 635
f 491 690 533
f 491 578 691
f 491 691 629
f 491 635 675
f 492 493 497
f 492 629 493
f 492 497 494
f 492 494 629
f 492 508 516
f 492 517 508
f 492 516 629
f 492 629 517
f 493 496 497
f 493 629 496
f 494 495 496
f 494 497 495
f 494 496 691
f 494 691 629
f 495 497 496
f 496 629 691
f 498 510 688
f 498 612 536
f 499 559 581
f 499 709 559
f 499 581 819
f 499 794 709
f 499 713 794
f 499 886 713
f 499 819 886
f 501 696 793
f 502 579 695
f 502 695 715
f 504 543 752
f 504 849 543
f 504 614 566
f 504 566 789
f 504 792 614
f 504 752 792
f 504 789 849
f 505 837 908
f 505 837 919
f 505 908 877
f 506 695 579
f 506 579 811
f 506 590 792
f 506 811 590
f 506 721 609
f 506 715 695
f 506 792 715
f 506 804 721
f 506 792 811
f 507 539 509
f 507 521 549
f 509 644 576
f 510 544 782
f 510 844 544
f 510 545 688
f 510 782 545
f 511 514 675
f 513 668 589
f 519 690 524
f 520 535 651
f 520 755 535
f 520 676 639
f 520 639 755
f 520 651 797
f 521 698 665
f 522 906 809
f 522 809 912
f 523 757 743
f 523 839 779
f 523 836 839
f 524 668 835
f 525 769 570
f 525 570 825
f 525 890 628
f 525 825 892
f 526 534 532
f 527 555 606
f 527 562 558
f 528 686 646
f 528 646 773
f 528 773 784
f 529 637 788
f 531 671 597
f 535 562 551
f 535 551 765
f 535 558 562
f 535 755 558
f 535 765 651
f 536 612 924
f 537 614 552
f 537 659 614
f 537 650 659
f 540 569 585
f 540 608 577
f 542 593 564
f 543 592 587
f 543 587 752
f 543 849 592
f 544 775 782
f 544 862 775
f 544 802 862
f 544 895 802
f 544 844 895
f 546 813 666
f 546 666 925
f 546 732 740
f 546 925 732
f 547 847 674
f 547 718 847
f 547 928 718
f 552 614 699
f 552 699 650
f 554 598 672
f 554 735 598
f 554 624 735
f 554 672 905
f 557 770 574
f 557 574 785
f 557 730 759
f 557 785 730
f 559 849 581
f 559 587 592
f 559 709 587
f 559 592 849
f 561 842 770
f 564 791 584
f 565 576 723
f 566 614 714
f 566 714 789
f 567 822 787
f 568 830 875
f 568 883 832
f 570 720 923
f 570 923 825
f 571 663 588
f 574 703 785
f 574 770 842
f 579 810 887
f 579 887 811
f 581 849 819
f 584 791 799
f 585 678 611
f 587 709 673
f 590 717 614
f 590 614 792
f 590 811 717
f 594 669 661
f 599 640 712
f 602 796 900
f 605 756 727
f 605 780 756
f 607 806 722
f 607 722 880
f 609 721 806
f 614 792 699
f 614 852 714
f 614 811 792
f 615 674 847
f 615 847 742
f 618 639 676
f 620 741 747
f 627 831 817
f 627 892 825
f 627 825 923
f 627 923 831
f 630 924 669
f 633 645 914
f 635 690 675
f 641 750 905
f 647 732 820
f 650 699 792
f 652 696 679
f 652 679 729
f 654 795 761
f 658 749 882
f 661 669 726
f 664 700 749
f 669 924 726
f 679 696 768
f 683 828 754
f 693 865 827
f 700 882 749
f 705 717 880
f 705 800 852
f 705 880 879
f 706 863 719
f 706 830 760
f 706 760 832
f 706 802 845
f 706 845 830
f 707 717 811
f 707 880 717
f 713 886 846
f 714 852 881
f 715 792 752
f 716 729 805
f 720 831 923
f 721 722 806
f 722 733 815
f 722 815 774
f 722 774 880
f 722 811 880
f 724 776 753
f 724 753 796
f 728 910 738
f 730 858 759
f 732 925 820
f 735 926 751
f 736 745 926
f 739 753 856
f 742 847 834
f 744 798 854
f 748 875 910
f 751 926 829
f 753 776 856
f 764 817 803
f 777 821 778
f 777 784 821
f 778 821 818
f 789 819 849
f 800 881 852
f 802 895 845
f 803 817 831
f 810 811 887
f 819 846 886
f 820 833 834
f 820 925 833
f 830 910 875
f 836 870 839
